<svg xmlns="http://www.w3.org/2000/svg" viewBox="0 0 500 500"><g id="freepik--Floor--inject-4"><path id="freepik--floor--inject-4" d="M105.13,270.4c-82.72,47.76-82.72,125.2,0,173s216.86,47.76,299.58,0,82.73-125.2,0-173S187.85,222.64,105.13,270.4Z" style="fill:#f0f0f0"></path></g><g id="freepik--Shadows--inject-4"><ellipse id="freepik--Shadow--inject-4" cx="408" cy="371.43" rx="66.95" ry="38.66" style="fill:#e0e0e0"></ellipse><ellipse id="freepik--shadow--inject-4" cx="99.35" cy="370.06" rx="66.95" ry="38.66" style="fill:#e0e0e0"></ellipse><path id="freepik--shadow--inject-4" d="M211.87,426.15a128.09,128.09,0,0,1,27.48,13.6c9.63,6.31,18.45,13.93,28.71,19.16,13.33,6.8,28.62,9.24,43.56,8.51,8.47-.42,17.67-2.25,23.06-8.79a9.64,9.64,0,0,0,2.5-5.88c0-3.18-2.21-5.91-4.52-8.1C320.3,433,303.1,428.19,286.51,424.46S260,416.05,243.67,407.6c-7-3.61-13.86-7.49-20.89-10.9l-.17-.08a111.37,111.37,0,0,0-10.68-5,83.37,83.37,0,0,0-18.47-4.71,37.76,37.76,0,0,0-18.76,2.25,8.31,8.31,0,0,0-3.94,2.82,6.74,6.74,0,0,0-.95,4,14.3,14.3,0,0,0,2.94,7.82,30.21,30.21,0,0,0,6,5.92C188.48,417.33,200.33,422.08,211.87,426.15Z" style="fill:#e0e0e0"></path></g><g id="freepik--Graphics--inject-4"><g id="freepik--Plus--inject-4"><polygon id="freepik--plus--inject-4" points="462.51 24.71 461.54 18.93 455.76 19.9 456.73 25.68 450.95 26.65 451.92 32.43 457.7 31.46 458.67 37.24 464.45 36.27 463.48 30.49 469.26 29.52 468.29 23.74 462.51 24.71" style="fill:#e0e0e0"></polygon><polygon id="freepik--plus--inject-4" points="175.89 93.88 176.86 88.1 182.64 89.07 181.67 94.85 187.45 95.82 186.48 101.6 180.7 100.63 179.73 106.41 173.95 105.44 174.92 99.66 169.14 98.69 170.11 92.91 175.89 93.88" style="fill:#e0e0e0"></polygon><polygon id="freepik--plus--inject-4" points="29.76 233.33 27.93 227.75 33.51 225.93 35.33 231.5 40.9 229.68 42.73 235.25 37.16 237.07 38.98 242.64 33.41 244.47 31.58 238.9 26.01 240.72 24.19 235.15 29.76 233.33" style="fill:#e0e0e0"></polygon></g><g id="freepik--Dots--inject-4"><path id="freepik--Dot--inject-4" d="M312.81,157.72a2.95,2.95,0,1,1,2.95,2.95A2.95,2.95,0,0,1,312.81,157.72Z" style="fill:#ebebeb"></path><path id="freepik--dot--inject-4" d="M168.46,42a3,3,0,1,1,2.95,3A3,3,0,0,1,168.46,42Z" style="fill:#ebebeb"></path><path id="freepik--dot--inject-4" d="M38.52,169.32a3,3,0,1,1,3,3A3,3,0,0,1,38.52,169.32Z" style="fill:#ebebeb"></path><path id="freepik--dot--inject-4" d="M174.85,177.59a3,3,0,1,1,3,2.95A2.95,2.95,0,0,1,174.85,177.59Z" style="fill:#ebebeb"></path><path id="freepik--dot--inject-4" d="M343.25,34.37a2.95,2.95,0,1,1,2.95,3A3,3,0,0,1,343.25,34.37Z" style="fill:#ebebeb"></path></g><g id="freepik--Apples--inject-4"><g id="freepik--Apple--inject-4"><path d="M470.5,203.08c5.12-1.55,9.25,2.52,7.54,7.06s-7.2,9.41-12.79,5.45c-6.85-1.26-7.11-8.56-5.07-13S468,198.34,470.5,203.08Z" style="fill:#f0f0f0"></path><path d="M478.68,199.07c-1.67-2.21-5.32-1.82-6.71,1.15C474.26,202.55,477.84,201.71,478.68,199.07Z" style="fill:#ebebeb"></path><path d="M470.68,200.9s.73-3.9-.89-6.72a2.61,2.61,0,0,0-2.87,1.35A11.7,11.7,0,0,1,470.68,200.9Z" style="fill:#e0e0e0"></path></g><g id="freepik--apple--inject-4"><path d="M328.43,73.66c2-5,7.8-5.58,10.23-1.39s2.76,11.53-3.85,13.37c-5.3,4.51-11.12.1-13.24-4.25S323.18,72.6,328.43,73.66Z" style="fill:#f0f0f0"></path><path d="M330.48,64.79c-2.77-.1-4.77,3-3.35,5.93C330.39,70.41,332,67.11,330.48,64.79Z" style="fill:#ebebeb"></path><path d="M326.85,72.15s-2.56-3-5.77-3.55a2.61,2.61,0,0,0-.77,3.08A11.63,11.63,0,0,1,326.85,72.15Z" style="fill:#e0e0e0"></path></g><g id="freepik--apple--inject-4"><path d="M43,29.29c5-1.8,9.37,2.06,7.89,6.67s-6.71,9.77-12.5,6.1c-6.9-.92-7.53-8.19-5.72-12.69S40.26,24.68,43,29.29Z" style="fill:#f0f0f0"></path><path d="M51,24.88c-1.78-2.13-5.41-1.55-6.65,1.48C46.71,28.58,50.24,27.56,51,24.88Z" style="fill:#ebebeb"></path><path d="M43.05,27.11s.53-3.93-1.22-6.66A2.61,2.61,0,0,0,39,21.94,11.68,11.68,0,0,1,43.05,27.11Z" style="fill:#e0e0e0"></path></g></g></g><g id="freepik--Plants--inject-4"><g id="freepik--plants--inject-4"><path d="M460.31,304.69c-2.07,3.63-5.17,8.64-8.09,14.05-4.36,8.1-8.3,17.11-7.7,23.77l0,.67h0L444,353.41l-.06,1.39-2.42-1.4L435.55,350a87.93,87.93,0,0,1-.15-33.39c2.34-13.36,11.69-28.05,19.58-28.85C462.33,287,465.48,295.63,460.31,304.69Z" style="fill:#95FF86"></path><path d="M460.31,304.69c-2.07,3.63-5.17,8.64-8.09,14.05-4.36,8.1-8.3,17.11-7.7,23.77l0,.67h0L444,353.41l-.06,1.39-2.42-1.4L435.55,350a87.93,87.93,0,0,1-.15-33.39c2.34-13.36,11.69-28.05,19.58-28.85C462.33,287,465.48,295.63,460.31,304.69Z" style="fill:#fff;opacity:0.25"></path><path d="M438.83,349.59a.47.47,0,0,0,.28-.5c-3.09-24.75,7.11-47.57,17.46-55.83a.47.47,0,0,0,.08-.66.46.46,0,0,0-.66-.08c-10.53,8.39-20.95,31.6-17.82,56.69a.47.47,0,0,0,.53.41Z" style="fill:#fff"></path><path d="M469.38,320.36c-.82,4.79-9.53,10.44-15.29,18.2-5.2,7-7.46,14.13-7.27,17.92h0l-2.89-1.67-2.42-1.4c-1.32-17.55,3.93-29,10.73-34.66a19.5,19.5,0,0,1,5.19-3.15C465.06,312.53,470.35,314.6,469.38,320.36Z" style="fill:#95FF86"></path><path d="M469.38,320.36c-.82,4.79-9.53,10.44-15.29,18.2-5.2,7-7.46,14.13-7.27,17.92h0l-2.89-1.67-2.42-1.4c-1.32-17.55,3.93-29,10.73-34.66a19.5,19.5,0,0,1,5.19-3.15C465.06,312.53,470.35,314.6,469.38,320.36Z" style="fill:#fff;opacity:0.6000000000000001"></path><path d="M444.09,353.37a.46.46,0,0,0,.28-.42c.3-20.11,11.82-31.07,17.88-34.06a.47.47,0,0,0-.42-.85c-6.7,3.3-18.1,14.37-18.41,34.89a.48.48,0,0,0,.47.48A.45.45,0,0,0,444.09,353.37Z" style="fill:#fff"></path></g><g id="freepik--plants--inject-4"><path d="M48,304.69c2.07,3.63,5.17,8.64,8.09,14.05,4.36,8.1,8.3,17.11,7.7,23.77l0,.67h0l.51,10.22.06,1.39,2.42-1.4L72.75,350a87.93,87.93,0,0,0,.15-33.39c-2.34-13.36-11.69-28.05-19.58-28.85C46,287,42.82,295.63,48,304.69Z" style="fill:#95FF86"></path><path d="M48,304.69c2.07,3.63,5.17,8.64,8.09,14.05,4.36,8.1,8.3,17.11,7.7,23.77l0,.67h0l.51,10.22.06,1.39,2.42-1.4L72.75,350a87.93,87.93,0,0,0,.15-33.39c-2.34-13.36-11.69-28.05-19.58-28.85C46,287,42.82,295.63,48,304.69Z" style="fill:#fff;opacity:0.25"></path><path d="M69.48,349.59a.46.46,0,0,1-.29-.5c3.09-24.75-7.1-47.57-17.46-55.83a.47.47,0,1,1,.59-.74c10.53,8.39,20.94,31.6,17.81,56.69a.47.47,0,0,1-.53.41Z" style="fill:#fff"></path><path d="M38.92,320.36c.82,4.79,9.53,10.44,15.29,18.2,5.2,7,7.46,14.13,7.27,17.92h0l2.89-1.67,2.42-1.4c1.32-17.55-3.93-29-10.73-34.66a19.5,19.5,0,0,0-5.19-3.15C43.24,312.53,38,314.6,38.92,320.36Z" style="fill:#95FF86"></path><path d="M38.92,320.36c.82,4.79,9.53,10.44,15.29,18.2,5.2,7,7.46,14.13,7.27,17.92h0l2.89-1.67,2.42-1.4c1.32-17.55-3.93-29-10.73-34.66a19.5,19.5,0,0,0-5.19-3.15C43.24,312.53,38,314.6,38.92,320.36Z" style="fill:#fff;opacity:0.6000000000000001"></path><path d="M64.21,353.37a.46.46,0,0,1-.28-.42c-.3-20.11-11.82-31.07-17.88-34.06a.47.47,0,0,1,.42-.85c6.7,3.3,18.1,14.37,18.41,34.89a.48.48,0,0,1-.47.48A.45.45,0,0,1,64.21,353.37Z" style="fill:#fff"></path></g></g><g id="freepik--character-3--inject-4"><g id="freepik--Character--inject-4"><g id="freepik--Backpack--inject-4"><path d="M343,136.33c1.13,1.85,4.22,0,9.62-2.13S355.85,108,355.85,108s-8.63,0-10.18,8.11S343,136.33,343,136.33Z" style="fill:#263238"></path><path d="M387.87,94.13C393,94,404.22,99.91,406,103.88c1.87,4.16,8.63,60.45,4.29,65.71-5.44,6.61-32.23,19.55-44,19.18-9.69-.3-18.9-9.18-20.38-11.77-2.42-4.25.6-62.19,3.67-67.07C354.6,102,381.38,94.24,387.87,94.13Z" style="fill:#95FF86"></path><path d="M387.87,94.13C393,94,404.22,99.91,406,103.88c1.87,4.16,8.63,60.45,4.29,65.71-5.44,6.61-32.23,19.55-44,19.18-9.69-.3-18.9-9.18-20.38-11.77-2.42-4.25.6-62.19,3.67-67.07C354.6,102,381.38,94.24,387.87,94.13Z" style="opacity:0.5"></path><path d="M346,139.32c.15-2.43.31-4.82.49-7.14.07-.93.14-1.84.22-2.74.15-1.8.31-3.53.47-5.17.08-.82.16-1.62.25-2.4.13-1.16.26-2.26.39-3.29s.27-2,.4-2.88c.05-.29.1-.58.14-.86a17.38,17.38,0,0,1,1.28-4.91,7,7,0,0,1,.48-.67,1.92,1.92,0,0,1,.18-.22,5.58,5.58,0,0,1,.39-.46l.25-.27c.13-.14.28-.28.43-.43l.27-.27.7-.61.48-.39.33-.27.57-.42.28-.21.66-.47c4.57,1.9,8.89,3.71,9,3.8s4.93,3,4.71,10.08l0,28.79v2.73c-.06,3.82,3.24,39-7.55,37l-.43-.08C353.12,185,347.12,179,346,177a6,6,0,0,1-.47-1.93c-.05-.38-.1-.79-.14-1.25,0-.23,0-.47,0-.72-.06-.75-.1-1.59-.13-2.51,0-.3,0-.62,0-.94-.14-4.83,0-11.52.26-18.68.05-1.43.12-2.88.19-4.34,0-1,.09-1.95.14-2.93l.09-1.46C345.86,141.26,345.92,140.29,346,139.32Z" style="fill:#95FF86"></path><path d="M346,139.32c.15-2.43.31-4.82.49-7.14.07-.93.14-1.84.22-2.74.15-1.8.31-3.53.47-5.17.08-.82.16-1.62.25-2.4.13-1.16.26-2.26.39-3.29s.27-2,.4-2.88c.05-.29.1-.58.14-.86a17.38,17.38,0,0,1,1.28-4.91,7,7,0,0,1,.48-.67,1.92,1.92,0,0,1,.18-.22,5.58,5.58,0,0,1,.39-.46l.25-.27c.13-.14.28-.28.43-.43l.27-.27.7-.61.48-.39.33-.27.57-.42.28-.21.66-.47c4.57,1.9,8.89,3.71,9,3.8s4.93,3,4.71,10.08l0,28.79v2.73c-.06,3.82,3.24,39-7.55,37l-.43-.08C353.12,185,347.12,179,346,177a6,6,0,0,1-.47-1.93c-.05-.38-.1-.79-.14-1.25,0-.23,0-.47,0-.72-.06-.75-.1-1.59-.13-2.51,0-.3,0-.62,0-.94-.14-4.83,0-11.52.26-18.68.05-1.43.12-2.88.19-4.34,0-1,.09-1.95.14-2.93l.09-1.46C345.86,141.26,345.92,140.29,346,139.32Z" style="opacity:0.4"></path><path d="M348.66,113.13a11.41,11.41,0,0,1,1-3.2c5-7.91,31.76-15.69,38.25-15.8C393,94,404.22,99.91,406,103.88a31,31,0,0,1,1.15,5.17c-10.18,5.4-36.46,17.4-39.16,16.42-3.32-1.21-19.05-11.86-19.34-12.32Z" style="opacity:0.5"></path><path d="M343.85,150.74c.31-.15,4.78-3.48,5.3-3.74.92-.46,14.1,8.55,15.32,10.08.85,1.06-.56,17.4-1.08,18.56-.19.42-5.11,3.32-5.3,3.74-.52,1.16-14.45-8-15.31-10.21S342.51,151.41,343.85,150.74Z" style="fill:#95FF86"></path><path d="M343.85,150.74c.31-.15,4.78-3.48,5.3-3.74.92-.46,14.1,8.55,15.32,10.08.85,1.06-.56,17.4-1.08,18.56-.19.42-5.11,3.32-5.3,3.74-.52,1.16-14.45-8-15.31-10.21S342.51,151.41,343.85,150.74Z" style="opacity:0.18"></path><path d="M359.17,160.81c.85,1.07-.55,17.4-1.08,18.57s-14.45-8-15.31-10.21-.27-17.76,1.07-18.43C344.77,150.28,358,159.29,359.17,160.81Z" style="fill:#95FF86"></path><path d="M349.15,147c-.52.26-5,3.59-5.29,3.74.91-.46,14.1,8.55,15.31,10.07l5.3-3.73C363.25,155.55,350.07,146.54,349.15,147Z" style="opacity:0.4"></path><path d="M359.17,160.81c.85,1.07-.55,17.4-1.08,18.57s-14.45-8-15.31-10.21-.27-17.76,1.07-18.43C344.77,150.28,358,159.29,359.17,160.81Z" style="opacity:0.30000000000000004"></path><path d="M364.47,157.08c-1-.65-3.94.9-5.21,2s-2.69,6.2-6,7-7.9-3.57-8.85-6.35-2.08-8.64-.48-10.71,4.38-3.2,6.7-1.93S364.2,154.52,364.47,157.08Z" style="fill:#95FF86"></path><path d="M364.47,157.08c-1-.65-3.94.9-5.21,2s-2.69,6.2-6,7-7.9-3.57-8.85-6.35-2.08-8.64-.48-10.71,4.38-3.2,6.7-1.93S364.2,154.52,364.47,157.08Z" style="opacity:0.1"></path><path d="M349.68,159.26a2.46,2.46,0,0,1,1.13,2.27,1,1,0,0,1-1.51.85,2.39,2.39,0,0,1-1.13-2.27C348.28,159.24,349,158.85,349.68,159.26Z" style="fill:#37474f"></path><path d="M368.36,125.53s-1.77-6.78-9.93-11.57-8.41-3.29-11.05,1.27c-2.38,4.11-3.42,19.46-3.54,20.93s-1.88,1.18-1.55-8.21,1.7-18.38,10.5-23.89c11.85-7.43,30.15-12.21,38.74-10.28s16.3,6.29,15.63,15.27C407.16,109.05,395.91,123.89,368.36,125.53Z" style="fill:#37474f"></path></g><g id="freepik--Chest--inject-4"><g id="freepik--Bottom--inject-4"><path d="M365,346c1-13.45-.55-23.77.61-44.78h0c.11-5.38.31-11.15.68-16.28,1.26-17.25,4-23.14,4.27-26.47,0,0,.48-26.83,1.64-64.57.55-17.75,5.89-23.13,10.15-32.55l53,0c3,22.82,4.95,74,4.78,97.94-.08,12.21-5.2,77.57-5.3,79.07-.36,5.33.12,7.44,2.29,9.68,4.54,4.7,11.11,9.17,16.8,13.26-.82,2.1-7.66,2-11.05.43A87.52,87.52,0,0,1,430.22,354c-4.67-3.34-10.64-6-10.72-11.1a4.25,4.25,0,0,0-.16-.9c-.08-3-7.25-46.68-7.84-56.83-.52-8.72.58-23.52.58-23.52l-5.83-36.95s-3.6,21.84-7.23,36.75c-3,12.14-7.85,32.85-11.18,47.79h0c-3.2,17.21-7.91,29.46-8.72,38.07-.25,2.06-2.66,22.24-3.66,26.87S364,378.9,363.35,371C362.9,365.66,364.82,348.57,365,346Z" style="fill:#9e6767"></path><path d="M406.25,224.68,410.52,198S427,196.14,433,190.58c0,0-7.56,10.29-18.75,12l-4.7,22.1L412,261.31Z" style="fill:#874c4c"></path><path d="M463.56,366.68c.29,0,.76,3.07-.79,4.39-1.8,1.53-7.09,4.06-14.13,3.25s-10.87-2.86-13.71-5.1-6.82-5.41-10-6.05c-3-.6-6.18-1.86-7.14-2.73s-.87-4.79-.87-4.79Z" style="fill:#263238"></path><path d="M419.2,340.54s-.53,0-.7.93c-.21,1.09-.41,4.23-.85,6a30.54,30.54,0,0,0-.59,9.53c.41,2,5.24,3.34,8.33,4.44a39.78,39.78,0,0,1,10,6c3.34,2.6,10.32,5.16,14.9,5.18,7,0,11.51-1.85,12.88-4.29,1.7-3,.32-4.74-7.76-8.25-1.53-.67-6.91-3.67-8.74-4.75a41.72,41.72,0,0,1-5.52-3.87,30.24,30.24,0,0,1-2.48-2.32,10.85,10.85,0,0,1-2.06-2.49c-.1-.2-.16-.44-.24-.65a10.59,10.59,0,0,1-.55-1.82c-.14-.64-.23-1.58-.87-2a5.68,5.68,0,0,0-2.87-.3,22.94,22.94,0,0,0-3.1.46c-1.18.27-2.55.38-3.24,1.46a5.51,5.51,0,0,0-.63,2.82c0,.45,0,.91,0,1.36,0,.19.09.54-.19.46s-.57-.74-.68-1c-.23-.51-.38-1.05-.63-1.54a8.13,8.13,0,0,0-1-1.64,7.9,7.9,0,0,0-1.29-1.23,14.71,14.71,0,0,1-1.39-.85A3,3,0,0,1,419.2,340.54Z" style="fill:#37474f"></path><path d="M456.75,360.62c-10.12.78-13.24,6.85-13.63,10.59a24.78,24.78,0,0,0,7.21,1.38c7,0,11.79-1.85,13.17-4.29C465.1,365.45,464,363.18,456.75,360.62Z" style="fill:#fafafa"></path><path d="M441.57,360.88a.5.5,0,0,1-.31-.1.46.46,0,0,1-.08-.67,12.11,12.11,0,0,1,9.12-3.58.47.47,0,0,1,.44.52.49.49,0,0,1-.54.43A11.23,11.23,0,0,0,442,360.7.46.46,0,0,1,441.57,360.88Z" style="fill:#f0f0f0"></path><path d="M437.18,358.47a.45.45,0,0,1-.31-.1.46.46,0,0,1-.08-.67,12.13,12.13,0,0,1,9.12-3.58.48.48,0,1,1-.1.95,11.2,11.2,0,0,0-8.25,3.23A.49.49,0,0,1,437.18,358.47Z" style="fill:#f0f0f0"></path><path d="M433.11,355.72a.56.56,0,0,1-.32-.11.47.47,0,0,1-.07-.67,12.14,12.14,0,0,1,9.12-3.58.48.48,0,0,1,.44.52.47.47,0,0,1-.54.43,11.2,11.2,0,0,0-8.25,3.23A.57.57,0,0,1,433.11,355.72Z" style="fill:#f0f0f0"></path><path d="M429.12,353a.5.5,0,0,1-.31-.1.46.46,0,0,1-.09-.67c1.92-2.39,6.28-4,10-3.64a.48.48,0,0,1,.45.52.49.49,0,0,1-.54.43c-3.32-.31-7.39,1.16-9.09,3.27A.52.52,0,0,1,429.12,353Z" style="fill:#f0f0f0"></path><path d="M378.74,377.76c-.27,4.61-1,7.67-2.71,10.37s-4.89,3.55-8.13,2.76-7.39-2.91-8.32-6.88-1.47-6.7-.73-11Z" style="fill:#263238"></path><path d="M365.13,344.39c-1.33.1-1.73,6.29-2.5,12.48-.82,6.65-2.88,9.39-3.61,14.84-.85,6.22.22,9,2.48,12.76s10.26,7.45,14.2,2.06c3.21-4.39,3.35-9.26,3.05-15.47a134.41,134.41,0,0,1,.43-15.74c.26-4.66,1.33-9.36.17-9.88-.09.69-.17,1.56-.27,2.23a10.4,10.4,0,0,1-.43,2.48c-.13.35-.43.71-.55.15a3.47,3.47,0,0,1,0-1.16c.19-1.72-.7-1.86-1.19-2a61.27,61.27,0,0,0-6.19-.85c-1-.06-4.53-.21-5,.35a3.77,3.77,0,0,0-.45,1.8c-.11.94-.34,1.62-.37,1.33-.06-.67.07-2.42.09-2.84s.09-.95.09-1.36S365.1,344.79,365.13,344.39Z" style="fill:#37474f"></path><path d="M358.65,375.31a15.08,15.08,0,0,0,2.49,9.45c2.26,3.77,10.9,7.47,14.85,2.08,2-2.68,2.48-5.85,2.75-9.08C376.38,373.61,362.37,371.78,358.65,375.31Z" style="fill:#fafafa"></path><path d="M375.83,371a.47.47,0,0,1-.16,0c-.06,0-6.23-2.49-12.24-1.15a.49.49,0,0,1-.59-.35.47.47,0,0,1,.37-.58,24,24,0,0,1,12.88,1.22.47.47,0,0,1,.24.64A.51.51,0,0,1,375.83,371Z" style="fill:#f0f0f0"></path><path d="M363.73,365.17a.49.49,0,0,1-.42-.32.48.48,0,0,1,.31-.61c6-1.95,12.62,1,12.87,1.11a.47.47,0,0,1,.21.64.51.51,0,0,1-.67.2c-.06,0-6.53-2.87-12.09-1A.75.75,0,0,1,363.73,365.17Z" style="fill:#f0f0f0"></path><path d="M363.94,360.8a.5.5,0,0,1-.42-.32.47.47,0,0,1,.3-.61c6.58-2.27,12.88.93,13.12,1.07a.48.48,0,0,1,.16.66.51.51,0,0,1-.68.16c-.05,0-6.14-3.1-12.26-1A.58.58,0,0,1,363.94,360.8Z" style="fill:#f0f0f0"></path><path d="M364.27,356.49a.5.5,0,0,1-.42-.3.48.48,0,0,1,.29-.62c6.17-2.23,12.95,1.06,13.2,1.2a.47.47,0,0,1,.19.65.5.5,0,0,1-.68.18c-.06,0-6.64-3.21-12.36-1.14A.44.44,0,0,1,364.27,356.49Z" style="fill:#ebebeb"></path><path d="M381,161.54c-6,10.55-10.45,19.18-11.06,50.56s-.51,40.18-.63,44-2.41,10.55-4.42,29.19.37,40.85.37,40.85,1.38,3,8.77,3.64c6.82.59,10.19-1.88,10.19-1.88s9.35-36.3,11.93-47.52,10.1-48.15,10.1-48.15l4.46,29.94s-2.08,10.29,0,26.64,5.74,33.09,5.74,33.09a31.94,31.94,0,0,0,10.47,1.65,18.22,18.22,0,0,0,9.19-2.32s5.79-48.64,5.79-67.17-3-65.55-5.35-92.3Z" style="fill:#37474f"></path><path d="M406.25,232.19l6.09-35.63s12.84-.89,20-8.09c-2.9,7.65-13.44,13-18.07,14.08l-5.44,29.24,1.9,30.34Z" style="fill:#263238"></path><path d="M371,262.89c2.19-8.34,4.65-17.78,4.84-41,.2-25,3.25-41.27,10.51-56.12l1,.44a95.32,95.32,0,0,0-8.65,29.19c2.22.54,4.55.78,6.75-.55,2.76-1.67,4.74-5.6,5.9-11.68,2.77-14.58,5.92-19.31,6.05-19.5l.89.56c0,.05-3.17,4.81-5.89,19.13-1.23,6.46-3.32,10.5-6.38,12.36a8,8,0,0,1-4.23,1.14,13.83,13.83,0,0,1-3.24-.44,203,203,0,0,0-1.6,25.48c-.19,23.31-2.68,32.82-4.87,41.21-.41,1.56-.81,3.09-1.19,4.67-2.34,9.83-4.86,38-3.54,60.13a6.54,6.54,0,0,1-1.12-.77c-1.21-22.12,1.29-49.82,3.62-59.59C370.19,266,370.6,264.45,371,262.89Z" style="fill:#263238"></path><path d="M419.82,198.54c.2,2,4.91,49,3.81,59-.26,2.38-.58,4.6-.89,6.74a123.54,123.54,0,0,0-1.25,28.34c.7,12.44,1,24.28,1.14,30.67l-1.07-.15c-.13-6.42-.44-18.15-1.14-30.46a123.22,123.22,0,0,1,1.27-28.54c.3-2.14.62-4.35.88-6.71,1.08-9.92-3.77-58.28-3.82-58.77Z" style="fill:#263238"></path></g></g><g id="freepik--Top--inject-4"><path d="M417.85,100.07c8.94,0,13.89,5.14,20.56,10.11,10.8,8,23.23,16.71,23.23,16.71s6.5-14,6.62-18.1-8.89-7.23-8.89-7.23-5.14-1.91-8.47-3,.16-4,4.28-3.74,7.76,2.19,8.61,1.24-1-6.86,0-8.58,4.76-2,7.54,0,9.15,8.18,10.07,14.59-2.77,32.05-6.54,42.07c-2.3,6.15-6.27,8.64-15.27,4.7-8.4-3.69-30.65-19.39-30.65-19.39Z" style="fill:#9e6767"></path><path d="M473.69,109c-2.17-.63-4.76-5.06-3.56-10s2.72-1.42,2.72-1.42Z" style="fill:#874c4c"></path><g id="freepik--apple--inject-4"><path d="M445.94,85.28c1.53.4,1.84,3.15,1.11,4,1.92,1.14,1.94,3.58.38,4.22.3,1,1.26,4.33-1.45,5.83,0,0,2.73,2,5.21.82s3.68-9.89,1.92-12.74S447,84.24,445.94,85.28Z" style="fill:#95FF86"></path><path d="M445.94,85.28c1.53.4,1.84,3.15,1.11,4,1.92,1.14,1.94,3.58.38,4.22.3,1,1.26,4.33-1.45,5.83,0,0,2.73,2,5.21.82s3.68-9.89,1.92-12.74S447,84.24,445.94,85.28Z" style="fill:#fff;opacity:0.6000000000000001"></path><path d="M468.87,102.52a14.9,14.9,0,0,1-1.26,1.14c-.27.22-.54.41-.82.6l-.08,0c-.15.1-.3.2-.46.29s-.31.18-.47.25-.31.16-.47.24c-6,2.71-14.29,1.38-18.33-4a11.35,11.35,0,0,1-1.09-1.75H446a3.26,3.26,0,0,0,2.25-.61,1.22,1.22,0,0,0,.17-.15,2.08,2.08,0,0,0,.63-2,2.61,2.61,0,0,0,2.48-4.08.44.44,0,0,1-.12-.22.46.46,0,0,1,.11-.27,3.23,3.23,0,0,0,.74-1.83,2.17,2.17,0,0,0-1.07-1.66,5.05,5.05,0,0,0-1.94-.64,2.5,2.5,0,0,0-3.29-2.66,9.05,9.05,0,0,1,2.38-2.87c4.45-3.37,9.89-1.15,11.25-.24,2,1.35,3.72.71,5.43,1.13,2.19.55,6,1.58,7.46,7C473.69,94.79,471.83,99.49,468.87,102.52Z" style="fill:#95FF86"></path><path d="M468.87,102.52a14.9,14.9,0,0,1-1.26,1.14c-.27.22-.54.41-.82.6l-.08,0c-.15.1-.3.2-.46.29s-.31.18-.47.25-.31.16-.47.24c-6,2.71-14.29,1.38-18.33-4a11.35,11.35,0,0,1-1.09-1.75H446a3.26,3.26,0,0,0,2.25-.61,1.22,1.22,0,0,0,.17-.15,10.91,10.91,0,0,0,1.85,1.94C455.41,104.76,463.44,105.26,468.87,102.52Z" style="opacity:0.1"></path><g style="opacity:0.1"><path d="M466.92,85.71c1.46.15,3.3,1.81,4,4a14,14,0,0,1-.47,8.54c-1.8,4.85-7.14,6.56-7.53,6.05s3.75-3.13,2.75-8.48S464.54,85.47,466.92,85.71Z" style="fill:#fff"></path></g><g style="opacity:0.1"><path d="M467.88,86.73c1.36.77,2.61,3.42,2.74,5.15s-.3,2.81-.56,3c-.47.27-2.88-3.18-3.6-4.66C465.44,88.09,465.68,85.49,467.88,86.73Z" style="fill:#fff"></path></g><path d="M461.88,87.16c.89-.47,1.68-.65,1.9.36s-2.14,2.08-4.31,1S456.79,85.75,457,85a4.26,4.26,0,0,0,2.23,2.31A3.87,3.87,0,0,0,461.88,87.16Z" style="opacity:0.2"></path></g><path d="M473.69,109c-3.89-2.24-2.32-9.77-1.91-10.85s0-2.43-1.14-3.75a7,7,0,0,0-3-2.32c-.65-.08-3.23.63-4.68,0s-2-1.86-1.28-2.55,4.41-1.57,6.06-1.4a10.44,10.44,0,0,1,3.71,1.52,24.14,24.14,0,0,0-3.29-3.55c-1.2-.83-3.39-1-4.33-1.12s-3.61-.9-4.21-2.35-.29-2,1.65-2,8.3,0,9.41.9a77.38,77.38,0,0,1,6.37,7c2,2.4,4.55,11.78,4.48,14.7S473.69,109,473.69,109Z" style="fill:#9e6767"></path><path d="M459.58,87.91a21.69,21.69,0,0,1,2.22-6.08,12,12,0,0,1,4.36-4.59,6.28,6.28,0,0,1,2.58.1c1.18.23,2.43,1.29,2,1.67s-2.23.4-4.65,1.94-5.1,4.9-5.52,7.14A1,1,0,0,1,459.58,87.91Z" style="fill:#37474f"></path><path d="M466.25,77.22l.12,0h0a6.7,6.7,0,0,1,2.35.14,3.23,3.23,0,0,1,2,1.26c0,.18-.26.37-1.34.31a6.67,6.67,0,0,1-3-.87C465.94,77.79,465.84,77.35,466.25,77.22Z" style="fill:#455a64"></path><path d="M461.81,84.49c1.43-2.48,4.66-4.16,6.77-4.77h0A12,12,0,0,0,466.05,81c-2.43,1.53-5.1,4.9-5.52,7.14a1,1,0,0,1-.95-.18s.15-.8.49-1.94C459.93,87.06,460.5,86.77,461.81,84.49Z" style="opacity:0.1"></path><path d="M461,83.39a5.16,5.16,0,0,1-4.39-8,5.23,5.23,0,0,1,4.25,2.27A6.19,6.19,0,0,1,461,83.39Z" style="fill:#95FF86"></path><path d="M461,83.39a5.16,5.16,0,0,1-4.39-8,5.23,5.23,0,0,1,4.25,2.27A6.19,6.19,0,0,1,461,83.39Z" style="opacity:0.30000000000000004"></path><path d="M456.62,75.4a5.23,5.23,0,0,1,4.25,2.27,6.19,6.19,0,0,1,.14,5.72C460.46,79,456.62,75.4,456.62,75.4Z" style="fill:#95FF86"></path><path d="M456.62,75.4a5.23,5.23,0,0,1,4.25,2.27,6.19,6.19,0,0,1,.14,5.72C460.46,79,456.62,75.4,456.62,75.4Z" style="opacity:0.2"></path><g id="freepik--chest--inject-4"><path d="M395.72,100.37a94.49,94.49,0,0,0-14.85,3.28,18,18,0,0,0-4.41,10.28c-.28,2.41.32,18.62,1.77,29.21,1.48,10.82-1.54,19.35-4.18,29.75,20.79,13.56,55.63,9.91,64.25,1.7-.06-8.89.68-32.79-1-49.94-1.13-11.53-12.71-20.14-19.44-24.58C417.85,100.07,411.88,98.31,395.72,100.37Z" style="fill:#f0f0f0"></path><path d="M400.32,39c3.6,1.64,5.16,2.94,8.34-.39,3.72-3,9.29-1.8,12.08,1.92,1,1.22,1.92,2.82,3.44,2.81.84,0,1.94-.55,3.47-.71A6,6,0,0,1,433.36,46c.47,1.29.06,2.74-.1,4.12a3.64,3.64,0,0,0,1.43,3.52,2.18,2.18,0,0,0,3.16-1.21c1.32,1.13,1,3.53-.31,4.72a6.13,6.13,0,0,1-4.86,1.23c3.11.54,5.82,4.09,4.27,7.33-.7,1.42-2.18,2.4-2.53,4-.43,1.93,1.05,3.68,1.52,5.59a5.76,5.76,0,0,1-2.87,6.37c-1.81.89-4,.65-5.74,1.62-1.92,1-2.95,3.28-4.47,4.9-7.53,7.46-12.12-3.29-19.57.25a16.26,16.26,0,0,0-2.77,2c-.38.3-.75.6-1.14.87a3.53,3.53,0,0,0-1,.73,2.84,2.84,0,0,1-2.16,1.16,8,8,0,0,1-2.43-.27c-2.56-.55-5.28-1.28-7-3.33a20.12,20.12,0,0,1-1.49-2.23,7.71,7.71,0,0,0-3.69-3.39c-1.81-.63-4-.1-5.58-1.17a6.3,6.3,0,0,1-2.2-3.78,12.49,12.49,0,0,0-1.55-4.19,4.64,4.64,0,0,0-4.61-1.82,7.62,7.62,0,0,1,2.9-4.38,33,33,0,0,1,3.08-1.71,5.4,5.4,0,0,0,1-.67,5.22,5.22,0,0,0,.81-1,7.48,7.48,0,0,0,.94-2.47c.07-.32.12-.64.16-1,.21-1.8.07-3.62.33-5.4a9.18,9.18,0,0,1,4.56-7c1.15-.57,2.43-.79,3.62-1.26a5.44,5.44,0,0,0,2.2-1.47c.26-.29.47-.61.73-.91a3,3,0,0,0,.55-.93,13.51,13.51,0,0,1,2-3.82C393,38.08,397.1,37.72,400.32,39Z" style="fill:#263238"></path><path d="M417.51,57.74c3.74.42,7.42.81,8.55,7.61.2,1.15,0,2.41.15,3.87.13,1.77,1.11,3.79,1.12,6.07.05,13-4.65,16.29-6.73,17.27a13.37,13.37,0,0,1-8,1.35l-.08,6.71s5.86,7.56,3.3,13.9C398.59,110,392.75,101,392.75,101l.06-16.51a6.75,6.75,0,0,1-5.17-1.69c-4-3.09-4-9.15-1.52-11.79s7.44-1.42,9,1.6c3.51-1.25,3.35-4.28,2-8.29,3.22-.87,5.75-7.11,6.2-12.12C406.41,55.79,411.83,57.11,417.51,57.74Z" style="fill:#9e6767"></path><path d="M415.35,82.38c-.92-.08-3-.5-2.89-1.35a5.65,5.65,0,0,0-.21-2.76c-.08-.19-.2.07-.2.2a5.86,5.86,0,0,1-5.13,6.08s-.06.11,0,.11a5,5,0,0,0,3.72-1.1c.53-.47.87-1,1.68-.89,1.66.17,4.2.72,5.32-.76A5.24,5.24,0,0,1,415.35,82.38Z" style="fill:#874c4c"></path><polygon points="413.85 66.18 416.16 78.68 422.22 75.13 413.85 66.18" style="fill:#874c4c"></polygon><path d="M412.59,93.91c-3.6-.62-13-2-16.42-8.19a8.85,8.85,0,0,0,2.74,5.86c4.61,3.84,13.65,4.87,13.65,4.87Z" style="fill:#874c4c"></path><path d="M407.88,64.21,403.93,67a2.52,2.52,0,0,1,.64-3.43A2.34,2.34,0,0,1,407.88,64.21Z" style="fill:#263238"></path><path d="M424,64.79,419.47,63a2.32,2.32,0,0,1,3.07-1.4A2.54,2.54,0,0,1,424,64.79Z" style="fill:#263238"></path><path d="M410.32,70.47a1.87,1.87,0,1,1-1.87-1.87A1.87,1.87,0,0,1,410.32,70.47Z" style="fill:#263238"></path><path d="M423.66,69.82A1.87,1.87,0,1,1,421.79,68,1.87,1.87,0,0,1,423.66,69.82Z" style="fill:#263238"></path></g><path d="M412.51,100.37a69.48,69.48,0,0,1,11.37,6.08,42.67,42.67,0,0,1,10.82,10.08,30.49,30.49,0,0,0-6.7-11.68c-4.83-4.93-7.61-5.75-10.37-6a33.18,33.18,0,0,0-5.11,0Z" style="fill:#263238"></path><g id="freepik--top--inject-4"><path d="M389.83,100.55a43.24,43.24,0,0,1,8,25c.06,37.86-23.48,43.56-23.48,43.56a34.91,34.91,0,0,1,.28-7.39s15.16-15.37,15.17-34.7c0-11.2-3.55-20.68-6.75-23.8l-2.22.43C380.84,102.69,384.28,101.22,389.83,100.55Z" style="fill:#263238"></path><path d="M360,175.74c4.09-.12,9.6-3.05,13.57-6.63,8.28-7.5,8.23-7.69,14.51-13.35,2.49-2.25,4.25-3.61,5.2-4.42a24.71,24.71,0,0,0,5-4.59c1.15-1.56,2.63-3.54,3-5.49.4-2.16,1.3-4.33,1-6.59-.08-.65-.26-1.28-.33-1.93a16.35,16.35,0,0,1,.13-2.71,12.87,12.87,0,0,0-.35-4.71,18,18,0,0,0-1.9-4c-.69-1.13-1.75-2.47-2.5-2.58.13,1,.44,3.1.51,5.07a12.19,12.19,0,0,1-3.14,5.56c-2.53,3-4.64,4.53-4.91,3.88s.73-2.55.57-5.74-1-4.38-1.93-4.67c-1.53-.46-1.59,1.21-2.36,3.72-.92,3-2.3,4.57-2.67,9-.33,3.9.26,4.84-2,6.49-1.3.94-5.67,3.1-5.67,3.1s1.39-4.19,3.71-11.36c4.48-13.91,6.67-23.35,1.45-30.19-9,.7-15.25,4-19.29,15.85-4.13,12.16-4.84,13.72-10.27,37.94C347.4,174.91,353.48,176,360,175.74Z" style="fill:#9e6767"></path><path d="M375.71,145.2c-4.51,2.34-16.34,6.7-18,12.56,0,0-.39-5.23,7.08-9.64,8-4.74,12.23-6.8,12.23-6.8Z" style="fill:#874c4c"></path></g></g></g></g><g id="freepik--character-2--inject-4"><g id="freepik--character--inject-4"><g id="freepik--bottom--inject-4"><path d="M279.28,248.61l-37.25,3s-2.54,12-3.4,21.1,4.63,17.89,4.63,17.89L246,306c-17.48,5.27-24,15.48-32.29,25.14-6,7-12.37,14.07-18.55,17.11-5.42,2.66-7.27,4.51.94,11.1,4.43,3.56,8.52,2.4,8.52,2.4s34.15-20.38,50.55-29.65h0c12.44-6.19,14.42-6.52,18.26-18.42C281.3,289.12,280.77,257.78,279.28,248.61Z" style="fill:#874c4c"></path><path d="M196.49,398.68a5.8,5.8,0,0,1-6.62,2.55c-3.66-1.07-7.87-4.55-10.64-9.71-2.88-5.36-2.81-11.21-.94-17,2.22-6.87,4.35-8.83,4.14-12.87-.19-3.7-.94-7-.08-8.39a6.2,6.2,0,0,1,2.46-1.91C185.51,364.17,195.31,390.24,196.49,398.68Z" style="fill:#263238"></path><path d="M199.29,345.68c-1-1.07-2.4.56-3.89,1.13-4.7,1.8-6.44.82-10.59,4.52-2.33,4.55.06,7.05-.51,12.63-.3,2.85-3.13,7.91-4.22,12a24.15,24.15,0,0,0-.76,4.55c-.45,7.14,6.8,19.48,14.88,19.05,3.35-.18,5.09-4.74,4.33-10.8a21.1,21.1,0,0,1,.63-8.37c1.05-5.12,3.69-12.13,6.94-16.45,1.06-1.39,3.9-3.2,2.62-4.66-5.19.62-6.16-1.43-8.9-3-1.49-.87-3.22.59-4.71,1.11-.37.12-.56.34-.66,0,.65-1.68,1.93-3.11,2.55-5.07s-1.68-3.12.8-5.58C197.8,346.72,198.51,346.28,199.29,345.68Z" style="fill:#37474f"></path><path d="M198.35,385.76c-1.44-4.59-15.48-4.69-18.86-.71a18.38,18.38,0,0,0,1.83,5.29c3.46,6.47,7.77,9.9,12.61,9.56C199.62,399.51,199.5,391.37,198.35,385.76Z" style="fill:#fafafa"></path><path d="M189.24,377.51c-.15-.12-.19-.12-.2-.34s0-.58.43-.63a14.4,14.4,0,0,1,10.43,3.1.49.49,0,0,1,0,.73.58.58,0,0,1-.76,0,13.34,13.34,0,0,0-9.44-2.79C189.43,377.66,189.39,377.63,189.24,377.51Z" style="fill:#f0f0f0"></path><path d="M190.83,372.48c-.15-.12-.2-.11-.2-.34s0-.58.46-.62A14.1,14.1,0,0,1,201.58,375a.49.49,0,0,1,0,.73.54.54,0,0,1-.75,0,13.09,13.09,0,0,0-9.49-3.14C191,372.63,191,372.6,190.83,372.48Z" style="fill:#f0f0f0"></path><path d="M192.25,367.85c-.16-.13-.21-.11-.2-.35s0-.57.5-.61a14,14,0,0,1,10.68,3.72.5.5,0,0,1,0,.74.59.59,0,0,1-.78,0,13.06,13.06,0,0,0-9.66-3.35C192.43,368,192.4,368,192.25,367.85Z" style="fill:#f0f0f0"></path><path d="M193.67,363.15c-.14-.13-.18-.1-.2-.34a.55.55,0,0,1,.51-.62,14.82,14.82,0,0,1,11.85,4.52.47.47,0,0,1-.11.73.6.6,0,0,1-.81-.06,13.69,13.69,0,0,0-10.73-4.1A.6.6,0,0,1,193.67,363.15Z" style="fill:#f0f0f0"></path><path d="M242.65,291.11s-5.05-7.84-5-15.09,3.32-24.4,3.32-24.4l39.28-2.88c1,10.92.44,29.78-1,40.39-2.12,14.25-4.42,26.78-7.65,31.81s-3.76,5.65-17.85,12.84-35.48,20.28-35.48,20.28-4.05.62-8.58-5.67c-3.18-4.43-3.56-7.46-3.6-9.08,1.06-1.34,2.89-3.66,5.15-6.43,3.6-4.4,12.61-15.79,17.8-19.47a66.66,66.66,0,0,1,16.05-7.87Z" style="fill:#263238"></path><path d="M263,266.66c2.78,9.95-.43,37.46-.81,40.57-.47,3.9-5.29,4.94-10.87,6.15a57,57,0,0,0-7.55,2c-7.19,2.68-11.65,7.45-18.42,14.65l-1.57,1.68c-3.76,4-7.86,5.56-11,4.2a4.54,4.54,0,0,1-2.3-2.18l-.59.73a5.47,5.47,0,0,0,2.54,2.24,6.94,6.94,0,0,0,2.9.55c2.88-.07,6.11-1.79,9.08-4.95l1.57-1.68c6.68-7.12,11.1-11.82,18.09-14.43a54,54,0,0,1,7.43-2c5.66-1.23,11-2.39,11.55-6.9.38-3.12,3.6-30.79.78-40.9-1.68-6-7.4-12.1-13-15.59l-1.51.12C255.06,254.22,261.31,260.56,263,266.66Z"></path><path d="M267.71,343.43s-16.08-16.94-27.57-29.28c-5-5.4-12.28-14-16.26-22.54-4.4-9.41-4.08-20.18-2.48-27.6,1.44-6.71,3.87-11,6.59-15.64l51.29.24a104.87,104.87,0,0,1-5.39,16.55c-3.26,7.27-10.42,11.78-10.42,11.78,11.25,19.79,30.85,46.51,32.07,55.72.58,4.29.68,12.86.28,22.78-1,22.8-.75,50-.6,55.14.14,4.87.13,10.43,3.62,16.56,2.4,4.2,2.76,8.8,6.36,11.81s11.26,4.69,8.28,9.14-9.65,4.57-15.57,3.94-11-8.87-13-13.84S279,430,275.59,427.28s-1.51-7.35-.69-9.48c2-5.62,2.63-5.34,2.2-10.21-1-11-6.26-31.4-8.05-39.54C265.2,350.47,267.71,343.43,267.71,343.43Z" style="fill:#9e6767"></path><path d="M231.09,304.94c-3.79-5.13-7.92-10.09-10.49-18.19-2.53-7.95-2.9-16.25-1.09-23.19,2-7.85,3.54-11.32,5.13-14.56l54.64-.39c2.68,18-12.91,29.46-12.91,29.46L273,289c7.3,11.19,19.07,32,21.63,38.14s2.52,6.55,1.95,21.88-1.43,51.53-1.43,51.53-2.08,2.8-10.25,2.83-9.25-2.64-9.25-2.64-2.88-15.55-4.09-20.44c-2.29-9.29-7.24-25.17-4.51-36.61C267.06,343.7,234.89,310.06,231.09,304.94Z" style="fill:#37474f"></path><path d="M276.89,362.93a79.13,79.13,0,0,1-.39-13.73c.19-5.08.33-9.09-1.66-11.82-1.42-1.95-4.1-5.1-7.5-9.07-9.29-10.89-23.34-27.34-28.16-39a85.18,85.18,0,0,1-4.43-14.73c-.9-4-1.62-7.1-3.17-9.79a22.45,22.45,0,0,0-9.75-8.78c-.11.28-.24.68-.34,1a21.07,21.07,0,0,1,9.32,8.24c1.5,2.58,2.2,5.65,3.08,9.55a86.93,86.93,0,0,0,4.48,14.87c4.87,11.75,19,28.26,28.3,39.19,3.38,4,6.06,7.1,7.46,9,1.82,2.5,1.68,6.18,1.5,11.29A80.22,80.22,0,0,0,276,363c.83,6.4,1.31,13.37-1.51,16.57a6.87,6.87,0,0,1-2.71,1.68c.06.25.12.55.2.84a7.9,7.9,0,0,0,3.17-2C278.22,376.72,277.75,369.52,276.89,362.93Z" style="fill:#263238"></path><path d="M315.65,446.57c.77,2.27-.27,4.93-2.63,6.59-3.15,2.2-8.45,3.28-14.09,2.16-5.87-1.17-10.22-5-13.38-10.15-3.75-6.15-3.86-9.08-7-11.51-2.9-2.22-5.31-3.92-5.78-5.46a6.52,6.52,0,0,1,.14-3.16C283,432.71,308.55,442.09,315.65,446.57Z" style="fill:#263238"></path><path d="M277.25,410.14c-1.48.15-1.3,2.32-1.82,3.86-1.65,4.85-2.95,6.87-2.55,11,1.93,4.75,4.76,4.62,8.58,8.65,2,2.05,4,7.52,6.34,11a22.76,22.76,0,0,0,2.94,3.51c5.07,4.93,19,7.12,23.8.48,2-2.75-1.25-6.37-6.28-9.64a13.9,13.9,0,0,1-5.55-6.21c-2.9-5.9-5.84-10.59-6-16,0-.81.31-5.32-1.48-3.89-3.06,2.46-7.37.23-9.81,1.77-1.34,1.1-1.42,4.79-2,6.3-.14.37-.09.67-.43.51-.84-1.58-1.84-5.46-2.92-7.2s-2-1.25-3-2.29C277.09,412,277.2,411.25,277.25,410.14Z" style="fill:#37474f"></path><path d="M309.14,439.16c-4.36-1.81-15.23,1.54-18.4,9a16.28,16.28,0,0,0,8.64,4.71c7.07,1.41,12.39.22,15.23-3.8C318,444.39,312.4,441.32,309.14,439.16Z" style="fill:#fafafa"></path><path d="M294.11,438.23c-.18,0-.22,0-.35-.17s-.33-.47,0-.77a14.26,14.26,0,0,1,10.32-3.37.47.47,0,0,1,.41.59.58.58,0,0,1-.61.47,13.25,13.25,0,0,0-9.33,3.07C294.34,438.25,294.3,438.24,294.11,438.23Z" style="fill:#f0f0f0"></path><path d="M291.58,433.56c-.19,0-.23,0-.34-.2s-.28-.5.11-.77a14,14,0,0,1,10.8-2.17.49.49,0,0,1,.32.66.57.57,0,0,1-.66.37,12.85,12.85,0,0,0-9.75,2C291.81,433.6,291.77,433.59,291.58,433.56Z" style="fill:#f0f0f0"></path><path d="M289.28,429.42c-.19,0-.23,0-.34-.2a.51.51,0,0,1,.16-.78,13.81,13.81,0,0,1,11.07-2.06.48.48,0,0,1,.29.67.59.59,0,0,1-.69.36,12.87,12.87,0,0,0-10,1.88C289.51,429.46,289.47,429.45,289.28,429.42Z" style="fill:#f0f0f0"></path><path d="M286.36,425c-.18,0-.21,0-.34-.2a.56.56,0,0,1,.16-.79,14.54,14.54,0,0,1,12.46-1.95.46.46,0,0,1,.25.7.6.6,0,0,1-.73.34,13.57,13.57,0,0,0-11.3,1.76A.59.59,0,0,1,286.36,425Z" style="fill:#f0f0f0"></path></g><g id="freepik--top--inject-4"><path d="M307.49,224.85c-.71-.57-2.39.46-4.65,1.94a4.46,4.46,0,0,0-2,3.29,6,6,0,0,0,3.74-1.37A10.59,10.59,0,0,0,307.49,224.85Z" style="fill:#263238"></path><path d="M309.31,240.48c-.71-.37-.93-.74.26-1.53s5.1-2.69,5.1-2.69l.61,1.6S310.59,241,309.31,240.48Z"></path><path d="M266.89,177.53c5.85.16,10.21.88,18.44,5.87,5.41,3.28,39.66,26.53,44.11,30.07,3.57,2.86-15,12.55-15.36,12.48s-38.56-19.75-38.56-19.75Z" style="fill:#9e6767"></path><path d="M309.41,233c-1-1.24-3.4-4.36-5.36-3.91-3.07.72-4.62,1.61-9.28,2.88-3.37.92-7.49,2.21-8.47,3-2.49,2.1-2.9,8.53-2.53,11.35s3.08,2.1,3.08,2.1c.16.59.64,1.9,2.92,1.84,0,.84,1.1,2,3.12,2,.09.95,1.78,1.56,3,1.24,1.75-.45,3.85-2.47,5-3.18s1.72-.95,1.84-1.5c.16-.74-.53-1.63-1.93-1.75a8.56,8.56,0,0,0,4.65-1.92,18.4,18.4,0,0,0,2.78-3.38,8.87,8.87,0,0,1,2.39-2.66c1.81-1.44,0-4.38-1-5.79C309.59,233.27,309.5,233.16,309.41,233Z" style="fill:#9e6767"></path><path d="M300.87,247.14a6.53,6.53,0,0,0-1.47.66,4.88,4.88,0,0,0-.62.48c-.2.18-.36.39-.58.59l-.11.11-.12-.1a5.45,5.45,0,0,0-2.47-.78,3.64,3.64,0,0,1,2.69.49H298a5,5,0,0,1,1.29-1A4.08,4.08,0,0,1,300.87,247.14Z" style="fill:#874c4c"></path><path d="M297.1,251c.18-.41.39-.74.54-1.12s.29-.73.44-1.14a1.89,1.89,0,0,1-.1,1.3A2.1,2.1,0,0,1,297.1,251Z" style="fill:#874c4c"></path><path d="M292.89,252.33a8.78,8.78,0,0,1-.31-3.46,9,9,0,0,1,.91-3.34,21.62,21.62,0,0,0-.54,3.38A20.51,20.51,0,0,0,292.89,252.33Z" style="fill:#874c4c"></path><path d="M289.77,250.34a17.13,17.13,0,0,1-.23-4.17,13.25,13.25,0,0,1,.89-4.08,35.79,35.79,0,0,0-.52,4.11C289.8,247.57,289.81,248.94,289.77,250.34Z" style="fill:#874c4c"></path><path d="M286.85,248.5a12,12,0,0,1,.74-8.42,24.16,24.16,0,0,0-.76,4.18A25,25,0,0,0,286.85,248.5Z" style="fill:#874c4c"></path><path d="M288.16,238a2.13,2.13,0,0,1,.34-1,2.21,2.21,0,0,1,.78-.71,3.91,3.91,0,0,1,2-.4l-.94.32a5.07,5.07,0,0,0-.89.38A3.14,3.14,0,0,0,288.16,238Z" style="fill:#874c4c"></path><path d="M291.15,239.77a2.17,2.17,0,0,1,.34-1,2.31,2.31,0,0,1,.78-.71,3.91,3.91,0,0,1,2-.4l-.94.33a5,5,0,0,0-.89.37A3.14,3.14,0,0,0,291.15,239.77Z" style="fill:#874c4c"></path><path d="M294.73,242.21a2.22,2.22,0,0,1,.34-1,2.31,2.31,0,0,1,.78-.71,3.91,3.91,0,0,1,2-.4l-.94.33a5.07,5.07,0,0,0-.89.38A3.07,3.07,0,0,0,294.73,242.21Z" style="fill:#874c4c"></path><path d="M308.85,240.94c2.91-3.17,18.16-7.86,22.1-12.14,2.95-3.2,4.61-5.85,4.5-8-.12-2.35-2.4-4.42-6.65-7.83a40.3,40.3,0,0,0-12.45,5.74c-5.57,3.73-11.73,10.44-16.32,11.66Z" style="fill:#9e6767"></path><path d="M308.59,221c-.47.38-1.24.92-1.71,1.28,1.06.55,2.09,1.07,2.95,1.5.67-.64,1.63-1.5,2.53-2.36,4.16-3.95,8.42-6.36,13.4-6.16C318.9,212.91,311.91,218.35,308.59,221Z" style="fill:#874c4c"></path><path d="M314.13,226.93,310,224.7a3.34,3.34,0,0,0-3,.08l-4,2.44a1.05,1.05,0,0,0-.6.89c0,.23,0,1.09,0,1.33a1,1,0,0,0,.64.84l4.1,2.23a3.33,3.33,0,0,0,3-.08l4-2.44a1.1,1.1,0,0,0,.6-.85c0-.24,0-1.13,0-1.36A1.06,1.06,0,0,0,314.13,226.93Z" style="fill:#37474f"></path><path d="M303,227.22l4-2.44a3.36,3.36,0,0,1,3-.08l4.1,2.23a.92.92,0,0,1,0,1.74l-4,2.44a3.31,3.31,0,0,1-3,.07l-4.1-2.22A.92.92,0,0,1,303,227.22Z" style="fill:#455a64"></path><path d="M308.69,231.07a2.57,2.57,0,0,1-1.29-.27l-4.11-2.22c-.26-.15-.41-.32-.41-.49s.13-.34.39-.5l4-2.44a2.59,2.59,0,0,1,1.27-.33,2.63,2.63,0,0,1,1.3.27l4.1,2.22c.26.15.41.32.42.48s-.14.35-.39.51l-4,2.44A2.66,2.66,0,0,1,308.69,231.07Z" style="fill:#263238"></path><path d="M306.61,231.63a.12.12,0,0,1-.08,0l-2.9-1.58a.15.15,0,0,1,.14-.26l2.91,1.58a.15.15,0,0,1,.06.2A.16.16,0,0,1,306.61,231.63Z" style="fill:#455a64"></path><path d="M311.09,225.78l-1.34.82a.14.14,0,0,0-.07.11.15.15,0,0,0,.05.13l1.33,1.27-4.12-1.19a.14.14,0,0,0-.17.07.15.15,0,0,0,0,.18l1.56,1.76-1.52-.34a.14.14,0,0,0-.11,0l-1.58,1,.31.17,1.37-.84,1.92.44a.16.16,0,0,0,.17-.07.15.15,0,0,0,0-.18l-1.52-1.73,4.22,1.22a.15.15,0,0,0,.17-.07.14.14,0,0,0,0-.19l-1.64-1.56,1.32-.81Z" style="fill:#95FF86"></path><path d="M310.39,231.64c.61.32,1.91,1.46,2.05,4.17s-1.59,4.63-3.13,4.67c.46.44,1.81.13,3.56-.76l1.46-.74a4,4,0,0,0,2.13-3,6.72,6.72,0,0,0,0-1.2,7.17,7.17,0,0,0-2.35-5.41Z" style="fill:#263238"></path><path d="M229.15,225.92c.78,4.68.95,7.11,0,10.82a75.55,75.55,0,0,1-3.86,10.77c6.95,6.84,24.29,9.84,35.35,8.82,15.21-1.4,19.54-7.74,19.54-7.74l.62-20Z" style="fill:#9e6767"></path><path d="M289.38,202.17c-5.39-13-22.49-24.65-22.49-24.65-2.38-.18-3.21-.57-13.49.1-5.58.36-13.47,1.19-18.3,2a21.12,21.12,0,0,0-8.17,10.83,35.9,35.9,0,0,0-2.15,18.64c1.34,9.05,3.67,11.43,5,22,14.53,7.63,43.91,6.75,50.84.93,0,0,.41-5.32.75-9.63C290.22,217.39,292,208.51,289.38,202.17Z" style="fill:#455a64"></path><path d="M270.59,222.83s-8.93,3.67-16.73.53c-8.43-3.4-9.75-10.87-9.08-13.82,0,0-3.53,12,7.07,16.06C262.26,229.58,270.59,222.83,270.59,222.83Z" style="fill:#37474f"></path><path d="M223.87,250.62l3-7.32s11.39,6.76,30.26,7c17.83.19,23.2-6.88,23.2-6.88,0,3.75.16,6.87.27,11.27,0,0-6.38,7.67-23.79,6.58C231.71,259.64,223.87,250.62,223.87,250.62Z" style="fill:#263238"></path><path d="M203.34,280.32a29.5,29.5,0,0,1-2-9.56,38.64,38.64,0,0,1,3.19,2.83,5,5,0,0,0,3.89,1.39c.71-.13,1.48-.78,1.22-1.45a1.41,1.41,0,0,0-.24-.39c-1.49-1.92-3-3.85-4.43-5.78a56.25,56.25,0,0,0-3.83-5.08,5.08,5.08,0,0,1-1.82-3.56c-.41-9.83.27-16.06,1.24-29.77,0,0,19.31-12.27,27.94-17.33a21.26,21.26,0,0,0,6.51-5.14c2.54-3.08,4.26-8.15,4.26-14.43a25.72,25.72,0,0,0-4.19-12.46,30.59,30.59,0,0,0-13.68,5.64c-2.52,1.77-5.48,3.83-17.66,13.6a147.83,147.83,0,0,0-18.3,16.69c-3.45,3.6-3.94,4.79-3.8,8.31.12,2.95.39,4.58,1.17,12.17.64,6.3,1.47,11.49,2.14,17.78.17,1.59.21,3.13.39,4.73.27,2.28-.14,6.67-.18,9a33.52,33.52,0,0,0,.54,6.84c.38,2.07,1,4.27,2.67,5.56a12.89,12.89,0,0,1,1.76,1.33c.52.57.78,1.34,1.29,1.91a5.52,5.52,0,0,0,3.16,1.37,4.14,4.14,0,0,1,1.5.53,6.34,6.34,0,0,1,1.07,1.18,5.36,5.36,0,0,0,3.89,1.86,2.78,2.78,0,0,1,1,.12,2.29,2.29,0,0,1,.57.41l3.67,3.33c.2.19.46.39.72.32a.81.81,0,0,0,.37-.26,2.41,2.41,0,0,0,.68-2.2,18.21,18.21,0,0,0-2.55-5A28.72,28.72,0,0,1,203.34,280.32Z" style="fill:#9e6767"></path><path d="M259,117.46c3.41,2,4.82,3.45,8.33.47,4-2.62,9.43-.83,11.82,3.16.83,1.31,1.62,3,3.13,3.14.84.09,2-.34,3.53-.34a6,6,0,0,1,5.33,3.89c.33,1.33-.22,2.73-.52,4.08a3.63,3.63,0,0,0,1.06,3.65,2.16,2.16,0,0,0,3.26-.87c1.2,1.25.62,3.61-.79,4.66a6.15,6.15,0,0,1-5,.72c3,.86,5.37,4.67,3.49,7.73-.84,1.34-2.41,2.17-2.92,3.68-.63,1.87.66,3.77.94,5.72a5.77,5.77,0,0,1-3.52,6c-1.89.69-4,.23-5.88,1-2,.85-3.26,3-4.95,4.42-8.26,6.64-11.71-4.52-19.49-1.77a16.39,16.39,0,0,0-3,1.69c-.4.26-.81.51-1.22.75a3.3,3.3,0,0,0-1,.62,2.86,2.86,0,0,1-2.27.93,8.24,8.24,0,0,1-2.39-.51c-2.49-.82-5.11-1.83-6.62-4a19.19,19.19,0,0,1-1.26-2.37,7.73,7.73,0,0,0-3.32-3.75c-1.74-.82-3.94-.52-5.43-1.75a6.3,6.3,0,0,1-1.8-4,12.57,12.57,0,0,0-1.11-4.33,4.65,4.65,0,0,0-4.39-2.29,7.58,7.58,0,0,1,3.33-4c1-.59,2.17-.91,3.24-1.39a5.19,5.19,0,0,0,1-.57,4.85,4.85,0,0,0,.91-.9,7.71,7.71,0,0,0,1.19-2.36c.1-.31.19-.63.26-1,.39-1.77.45-3.59.89-5.34a9.19,9.19,0,0,1,5.25-6.47c1.21-.45,2.5-.54,3.73-.88a5.55,5.55,0,0,0,2.35-1.23c.28-.27.53-.57.81-.83a3.14,3.14,0,0,0,.65-.88,13.74,13.74,0,0,1,2.42-3.59C251.78,115.77,255.92,115.84,259,117.46Z" style="fill:#263238"></path><path d="M281.63,150.17c0-1.47.33-2.7.26-3.87-.43-6.88-4.05-7.64-7.72-8.45-5.58-1.21-10.85-3.08-13.61-7-1,4.94-4.12,10.88-7.41,11.41.95,4.14-.12,6.81-3.74,7.7-.56-4.35-5.35-4.71-8.27-2.58s-3,9.44.56,12.83,5.14,1.69,5.14,1.69l-2.56,17.18s6,11.15,24.61,15c3.19-6-3.77-14.4-3.77-14.4l1.17-6.4a13.67,13.67,0,0,0,7.36-.44c2.17-.76,7.19-3.58,8.47-16.48C282.34,154.05,281.58,151.94,281.63,150.17Z" style="fill:#9e6767"></path><polygon points="269.65 145.87 270.67 158.54 277.06 155.64 269.65 145.87" style="fill:#874c4c"></polygon><path d="M266.29,173.24c-3.52-1-13.48-3.25-16.24-9.76a8.87,8.87,0,0,0,2.13,6.12c4.19,4.29,13.62,6.27,13.62,6.27Z" style="fill:#874c4c"></path><path d="M263.92,143.3l-4.21,2.31a2.52,2.52,0,0,1,1-3.35A2.35,2.35,0,0,1,263.92,143.3Z" style="fill:#263238"></path><path d="M280.05,144.24,275.77,142a2.31,2.31,0,0,1,3.19-1.07A2.53,2.53,0,0,1,280.05,144.24Z" style="fill:#263238"></path><path d="M265.7,149.77a1.87,1.87,0,1,1-1.67-2.05A1.87,1.87,0,0,1,265.7,149.77Z" style="fill:#263238"></path><path d="M279.23,149.21a1.87,1.87,0,1,1-1.67-2.05A1.87,1.87,0,0,1,279.23,149.21Z" style="fill:#263238"></path><path d="M253.86,156c.26,1.68,2.41,2.73,4.8,2.35s4.12-2,3.85-3.71-2.41-2.72-4.8-2.34S253.59,154.33,253.86,156Z" style="fill:#874c4c"></path><path d="M278.74,154.27c0,1.69,2,3.06,4.39,3s4.38-1.38,4.37-3.07-2-3.06-4.39-3.05S278.73,152.58,278.74,154.27Z" style="fill:#874c4c"></path><path d="M264.78,160.17l6.13,1.72a3.13,3.13,0,0,1-3.86,2.32A3.34,3.34,0,0,1,264.78,160.17Z" style="fill:#874c4c"></path><path d="M264.82,161.94a4.59,4.59,0,0,1,.74,0,4.48,4.48,0,0,1,3.32,2.2,3.07,3.07,0,0,1-1.83.06A3.25,3.25,0,0,1,264.82,161.94Z" style="fill:#f28f8f"></path></g></g></g><g id="freepik--character-1--inject-4"><g id="freepik--character--inject-4"><g id="freepik--chest--inject-4"><g id="freepik--bottom--inject-4"><path d="M143.29,346c-1-13.45.55-23.77-.61-44.78h0c-.11-5.38-.31-11.15-.68-16.28-1.26-17.25-4-23.14-4.27-26.47,0,0-.48-26.83-1.64-64.57-.55-17.75-5.89-23.13-10.15-32.55l-53,0c-3,22.82-5,74-4.78,97.94.08,12.21,5.2,77.57,5.3,79.07.36,5.33-.12,7.44-2.29,9.68-4.54,4.7-11.11,9.17-16.8,13.26.82,2.1,7.66,2,11,.43A87.52,87.52,0,0,0,78.08,354c4.67-3.34,10.64-6,10.72-11.1A4.25,4.25,0,0,1,89,342c.08-3,7.25-46.68,7.84-56.83.52-8.72-.58-23.52-.58-23.52l5.83-36.95s3.6,21.84,7.23,36.75c3,12.14,7.85,32.85,11.18,47.79h0c3.2,17.21,7.91,29.46,8.72,38.07.25,2.06,2.66,22.24,3.66,26.87S144.28,378.9,145,371C145.4,365.66,143.48,348.57,143.29,346Z" style="fill:#9e6767"></path><path d="M102.05,224.68,97.78,198s-16.48-1.89-22.48-7.45c0,0,7.56,10.29,18.75,12l4.7,22.1-2.48,36.66Z" style="fill:#874c4c"></path><path d="M44.74,366.68c-.29,0-.76,3.07.79,4.39,1.8,1.53,7.09,4.06,14.13,3.25s10.87-2.86,13.71-5.1,6.82-5.41,10-6.05c3-.6,6.18-1.86,7.14-2.73s.87-4.79.87-4.79Z" style="fill:#263238"></path><path d="M89.1,340.54s.53,0,.7.93c.21,1.09.41,4.23.85,6a30.54,30.54,0,0,1,.59,9.53c-.41,2-5.24,3.34-8.33,4.44a39.78,39.78,0,0,0-10,6c-3.34,2.6-10.32,5.16-14.9,5.18-7,0-11.51-1.85-12.88-4.29-1.7-3-.32-4.74,7.76-8.25,1.53-.67,6.91-3.67,8.74-4.75a41.72,41.72,0,0,0,5.52-3.87,30.24,30.24,0,0,0,2.48-2.32,10.85,10.85,0,0,0,2.06-2.49c.1-.2.16-.44.25-.65a11.53,11.53,0,0,0,.54-1.82c.14-.64.23-1.58.87-2a5.71,5.71,0,0,1,2.88-.3,23,23,0,0,1,3.09.46c1.18.27,2.55.38,3.24,1.46a5.51,5.51,0,0,1,.63,2.82c0,.45,0,.91,0,1.36,0,.19-.09.54.19.46s.58-.74.68-1c.23-.51.38-1.05.63-1.54a8.13,8.13,0,0,1,1-1.64A7.9,7.9,0,0,1,87,343.07a14.71,14.71,0,0,0,1.39-.85A3,3,0,0,0,89.1,340.54Z" style="fill:#37474f"></path><path d="M51.55,360.62c10.12.78,13.24,6.85,13.63,10.59A24.78,24.78,0,0,1,58,372.59c-7,0-11.79-1.85-13.17-4.29C43.2,365.45,44.34,363.18,51.55,360.62Z" style="fill:#fafafa"></path><path d="M66.73,360.88a.5.5,0,0,0,.31-.1.46.46,0,0,0,.08-.67A12.11,12.11,0,0,0,58,356.53a.47.47,0,0,0-.44.52.49.49,0,0,0,.54.43,11.22,11.22,0,0,1,8.25,3.22A.48.48,0,0,0,66.73,360.88Z" style="fill:#f0f0f0"></path><path d="M71.12,358.47a.45.45,0,0,0,.31-.1.46.46,0,0,0,.08-.67,12.13,12.13,0,0,0-9.12-3.58.48.48,0,1,0,.1.95,11.2,11.2,0,0,1,8.25,3.23A.5.5,0,0,0,71.12,358.47Z" style="fill:#f0f0f0"></path><path d="M75.19,355.72a.56.56,0,0,0,.32-.11.47.47,0,0,0,.07-.67,12.14,12.14,0,0,0-9.12-3.58.48.48,0,1,0,.1.95,11.2,11.2,0,0,1,8.25,3.23A.57.57,0,0,0,75.19,355.72Z" style="fill:#f0f0f0"></path><path d="M79.18,353a.5.5,0,0,0,.31-.1.46.46,0,0,0,.09-.67c-1.92-2.39-6.28-4-10-3.64a.48.48,0,0,0-.45.52.49.49,0,0,0,.54.43c3.32-.31,7.39,1.16,9.09,3.27A.52.52,0,0,0,79.18,353Z" style="fill:#f0f0f0"></path><path d="M129.56,377.76c.27,4.61,1,7.67,2.71,10.37s4.89,3.55,8.13,2.76,7.39-2.91,8.32-6.88,1.47-6.7.73-11Z" style="fill:#263238"></path><path d="M143.17,344.39c1.34.1,1.73,6.29,2.5,12.48.82,6.65,2.88,9.39,3.62,14.84.84,6.22-.23,9-2.49,12.76s-10.26,7.45-14.2,2.06c-3.21-4.39-3.35-9.26-3-15.47a134.41,134.41,0,0,0-.43-15.74c-.26-4.66-1.33-9.36-.17-9.88.09.69.17,1.56.27,2.23a10.4,10.4,0,0,0,.43,2.48c.13.35.43.71.55.15a3.23,3.23,0,0,0,0-1.16c-.19-1.72.7-1.86,1.19-2a61.66,61.66,0,0,1,6.19-.85c1-.06,4.54-.21,5,.35a3.66,3.66,0,0,1,.45,1.8c.11.94.34,1.62.37,1.33.06-.67-.07-2.42-.09-2.84s-.09-.95-.09-1.36S143.2,344.79,143.17,344.39Z" style="fill:#37474f"></path><path d="M149.66,375.31a15.08,15.08,0,0,1-2.5,9.45c-2.26,3.77-10.9,7.47-14.84,2.08-2-2.68-2.49-5.85-2.76-9.08C131.92,373.61,145.93,371.78,149.66,375.31Z" style="fill:#fafafa"></path><path d="M132.47,371a.42.42,0,0,0,.16,0c.06,0,6.23-2.49,12.24-1.15a.51.51,0,0,0,.6-.35.49.49,0,0,0-.38-.58,24,24,0,0,0-12.88,1.22.48.48,0,0,0-.24.64A.52.52,0,0,0,132.47,371Z" style="fill:#f0f0f0"></path><path d="M144.57,365.17a.49.49,0,0,0,.42-.32.48.48,0,0,0-.31-.61c-6-1.95-12.62,1-12.87,1.11a.47.47,0,0,0-.21.64.51.51,0,0,0,.67.2c.06,0,6.53-2.87,12.09-1A.75.75,0,0,0,144.57,365.17Z" style="fill:#f0f0f0"></path><path d="M144.36,360.8a.5.5,0,0,0,.42-.32.47.47,0,0,0-.3-.61c-6.58-2.27-12.88.93-13.12,1.07a.48.48,0,0,0-.16.66.51.51,0,0,0,.68.16c.05,0,6.14-3.1,12.27-1A.51.51,0,0,0,144.36,360.8Z" style="fill:#f0f0f0"></path><path d="M144,356.49a.5.5,0,0,0,.41-.3.48.48,0,0,0-.29-.62c-6.17-2.23-12.95,1.06-13.2,1.2a.47.47,0,0,0-.19.65.5.5,0,0,0,.68.18c.06,0,6.64-3.21,12.36-1.14A.46.46,0,0,0,144,356.49Z" style="fill:#ebebeb"></path><path d="M127.3,161.54c6,10.55,10.45,19.18,11.06,50.56s.51,40.18.63,44,2.42,10.55,4.42,29.19S143,326.1,143,326.1s-1.38,3-8.77,3.64c-6.82.59-10.19-1.88-10.19-1.88s-9.35-36.3-11.93-47.52-10.1-48.15-10.1-48.15l-4.46,29.94s2.08,10.29,0,26.64-5.74,33.09-5.74,33.09a31.94,31.94,0,0,1-10.47,1.65,18.22,18.22,0,0,1-9.19-2.32S66.4,272.55,66.4,254s3-65.55,5.35-92.3Z" style="fill:#37474f"></path><path d="M102.05,232.19,96,196.56s-12.84-.89-20-8.09c2.9,7.65,13.44,13,18.07,14.08l5.44,29.24-1.9,30.34Z" style="fill:#263238"></path><path d="M137.3,262.89c-2.18-8.34-4.65-17.78-4.84-41-.2-25-3.25-41.27-10.51-56.12l-1,.44a95.32,95.32,0,0,1,8.65,29.19c-2.22.54-4.55.78-6.75-.55-2.76-1.67-4.74-5.6-5.9-11.68-2.77-14.58-5.91-19.31-6-19.5l-.89.56c0,.05,3.17,4.81,5.89,19.13,1.23,6.46,3.32,10.5,6.38,12.36a8,8,0,0,0,4.23,1.14,13.76,13.76,0,0,0,3.24-.44,203,203,0,0,1,1.6,25.48c.19,23.31,2.68,32.82,4.87,41.21.41,1.56.81,3.09,1.19,4.67,2.35,9.83,4.86,38,3.55,60.13a6.83,6.83,0,0,0,1.11-.77c1.21-22.12-1.29-49.82-3.62-59.59C138.11,266,137.7,264.45,137.3,262.89Z" style="fill:#263238"></path><path d="M88.49,198.54c-.21,2-4.92,49-3.82,59,.26,2.38.58,4.6.89,6.74a123.54,123.54,0,0,1,1.25,28.34c-.7,12.44-1,24.28-1.14,30.67l1.07-.15c.13-6.42.44-18.15,1.14-30.46a123.22,123.22,0,0,0-1.27-28.54c-.3-2.14-.62-4.35-.88-6.71-1.08-9.92,3.77-58.28,3.82-58.77Z" style="fill:#263238"></path></g></g><g id="freepik--top--inject-4"><g id="freepik--Arm--inject-4"><path d="M90.45,100.07C77.32,99.8,72.77,103.34,64.8,107c-3.32,1.54-10.08,5.38-16.83,9.34,1.15-9.31,3.05-17,4.45-20l1-10.83a2.18,2.18,0,0,1-.7-1.73c.09-1,.05-2,.06-3a62.22,62.22,0,0,1,.38-6.55,38.88,38.88,0,0,1,1.28-5.83c.46-1.63.56-4.08-1.78-4a8.16,8.16,0,0,0-1.67.48c-1.1.26-2.08-.41-3.12-.55s-1.94.84-2.77,1.38a10.48,10.48,0,0,1-2.52.76,8,8,0,0,0-2.12,1.63,9.66,9.66,0,0,0-2.58,3.64,20.47,20.47,0,0,0-1,2.75,30.08,30.08,0,0,0-1,5.48,56,56,0,0,0-.22,8.39c.09,1.89.53,3.75.53,5.64s-.21,3.14-1.35,6.38c-.85,2.43-3.2,9.46-6,17.18-1.88,5.19-6.22,16.65-3.25,22.88s10,4.57,18.42,1h0c11.91-4.72,40.79-17.76,40.79-17.76Z" style="fill:#9e6767"></path><path d="M48,116.35c-.72,5.47-.82,11.25-3.8,16.55,0,0,6.34-5.67,7.95-19Z" style="fill:#874c4c"></path></g><g id="freepik--chest--inject-4"><path d="M109,99.84l11.55,1.08c5.85,1.44,10.73,7.83,11.33,13,.28,2.41-.32,18.62-1.77,29.21-1.48,10.82,1.54,19.35,4.18,29.75-20.79,13.56-55.62,9.91-64.25,1.7.06-8.89-.68-32.79,1-49.94,1.13-11.53,12.71-20.14,19.44-24.58Z" style="fill:#f0f0f0"></path><path d="M109.25,39.87c-3.75,1.17-5.44,2.26-8.17-1.41-3.29-3.42-8.92-2.9-12.12.42-1.1,1.09-2.24,2.54-3.73,2.35-.83-.11-1.84-.79-3.34-1.13a5.93,5.93,0,0,0-6,2.57c-.62,1.22-.39,2.69-.41,4.07A3.59,3.59,0,0,1,73.62,50a2.16,2.16,0,0,1-3-1.58c-1.43.95-1.4,3.36-.27,4.69A6.07,6.07,0,0,0,75,54.94c-3.12.16-6.23,3.32-5.1,6.7.52,1.48,1.85,2.63,2,4.21.2,2-1.47,3.5-2.18,5.32A5.74,5.74,0,0,0,71.8,77.8c1.67,1.08,3.83,1.12,5.45,2.28s2.5,3.59,3.8,5.37c6.51,8.27,12.34-1.75,19.24,2.65a16.83,16.83,0,0,1,2.49,2.29c.33.34.66.68,1,1a3.47,3.47,0,0,1,.87.84,2.79,2.79,0,0,0,2,1.39,7.86,7.86,0,0,0,2.42,0c2.6-.23,5.36-.62,7.31-2.42a19.59,19.59,0,0,0,1.74-2,7.68,7.68,0,0,1,4-2.89c1.87-.4,3.93.38,5.65-.47a6.35,6.35,0,0,0,2.62-3.45,12.31,12.31,0,0,1,2-3.94,4.59,4.59,0,0,1,4.76-1.23,7.55,7.55,0,0,0-2.32-4.66,33.45,33.45,0,0,0-2.82-2.07,5,5,0,0,1-.87-.78,4.81,4.81,0,0,1-.68-1.08,7.65,7.65,0,0,1-.63-2.54c0-.33,0-.66,0-1,0-1.79.37-3.57.33-5.36a9.13,9.13,0,0,0-3.64-7.43c-1.06-.7-2.29-1.08-3.4-1.68a5.32,5.32,0,0,1-2-1.72c-.22-.32-.39-.66-.61-1a3.13,3.13,0,0,1-.43-1,13.45,13.45,0,0,0-1.54-4C116.61,39.85,112.58,39,109.25,39.87Z" style="fill:#263238"></path><path d="M90,56.2c-3.73,0-7.4-.11-9.35,6.44-.33,1.12-.32,2.38-.61,3.8-.35,1.72-1.56,3.6-1.85,5.84C76.59,85,80.8,88.88,82.73,90.1s4.9,2,8.87,2l1,9.24s-6.06,7.15-4.33,13.7c17.52-2.31,24.35-14.69,24.35-14.69l-1.74-16.56a4.52,4.52,0,0,0,5.49.76c4.28-2.56,5.05-8.52,3-11.42s-7.16-2.31-9,.48c-3.3-1.67-2.77-4.63-.93-8.41-3.07-1.25-4.8-7.7-4.62-12.69C101.2,55.64,95.7,56.27,90,56.2Z" style="fill:#9e6767"></path><polygon points="92.61 64.96 88.8 76.99 83.27 72.75 92.61 64.96" style="fill:#874c4c"></polygon><path d="M91.6,92.06c3.62-.17,12-1.14,16.17-6.81A12.94,12.94,0,0,1,104.14,91C100.3,94.15,92,95.48,92,95.48Z" style="fill:#874c4c"></path><path d="M97.56,63.34l4.14,2.37a2.51,2.51,0,0,0-.92-3.34A2.34,2.34,0,0,0,97.56,63.34Z" style="fill:#263238"></path><path d="M82.45,62.74l4.64-1.23a2.3,2.3,0,0,0-2.85-1.75A2.53,2.53,0,0,0,82.45,62.74Z" style="fill:#263238"></path><path d="M99.72,70.24c-.14.5-.84-1-2.11-1.35s-2.66.74-2.49.12a2.41,2.41,0,0,1,4.6,1.23Z" style="fill:#263238"></path><path d="M82,67c-.12.5,1.22-.48,2.5-.17s2,1.93,2.13,1.3A2.41,2.41,0,0,0,82,67Z" style="fill:#263238"></path></g><path d="M159.28,138.33c-7.71-11.77-12.52-20.38-19.5-28.6-6.1-7.17-9.1-7.5-20.55-8.93-2.5,7-1.89,16.8,5.35,26,0,0,13.22,16.75,17.84,22.81,0,0-2.78,5.1-5.59,10.13-2,3.56-4.57,8.17-6.78,11.62a20.16,20.16,0,0,1-2.46,3.2,8.18,8.18,0,0,1-1.49,1.24,8,8,0,0,1-.95.53,9.17,9.17,0,0,1-1.21.46,20.37,20.37,0,0,1-2.64.76,50.18,50.18,0,0,0-5.28,1c-.11,0-.21.06-.33.09l-.7.22a20.66,20.66,0,0,1-3.36.93c-.88.14-1.75.24-2.64.35-.43,0-.86.11-1,.55-.36,1.13.63,2,1.41,2.62a6.36,6.36,0,0,0,3.62,1c1,.1,2,.12,3,.13h1.28v0c1.17,5.36,3.07,8.87,5.63,10.42,2.2,1.33,4.53,1.09,6.75.54.35-.24.67-.49,1-.74,5.21-4.14,5.53-8.28,9.66-13.67,4.27-5.55,16.45-19.58,20.52-25.86C165.82,147.39,164,145.48,159.28,138.33Z" style="fill:#9e6767"></path><g id="freepik--bottle-of-water--inject-4"><g id="freepik--bottle-of-water--inject-4"><g id="freepik--Bottle--inject-4"><g id="freepik--Cap--inject-4"><path d="M80.18,84.05a6.33,6.33,0,0,1,1.12-5.63,2,2,0,0,1,1.84-.84l.65.13a2,2,0,0,1,1.39,1.48,6.36,6.36,0,0,1-1.11,5.63,2,2,0,0,1-1.85.84l-.64-.13A2,2,0,0,1,80.18,84.05Z" style="fill:#95FF86"></path><path d="M80.18,84.05a6.33,6.33,0,0,1,1.12-5.63,2,2,0,0,1,1.84-.84l.65.13a2,2,0,0,1,1.39,1.48,6.36,6.36,0,0,1-1.11,5.63,2,2,0,0,1-1.85.84l-.64-.13A2,2,0,0,1,80.18,84.05Z" style="fill:#fff;opacity:0.5"></path><path d="M84.55,79.06c-.6-1.73-2-2-3.25-.64a6.33,6.33,0,0,0-1.12,5.63c.59,1.73,2,2,3.25.64A6.33,6.33,0,0,0,84.55,79.06Z" style="fill:#95FF86"></path><path d="M84.55,79.06c-.6-1.73-2-2-3.25-.64a6.33,6.33,0,0,0-1.12,5.63c.59,1.73,2,2,3.25.64A6.33,6.33,0,0,0,84.55,79.06Z" style="fill:#fff;opacity:0.5"></path><path d="M84.55,79.06c-.6-1.73-2-2-3.25-.64a6.33,6.33,0,0,0-1.12,5.63c.59,1.73,2,2,3.25.64A6.33,6.33,0,0,0,84.55,79.06Z" style="opacity:0.1"></path><path d="M79.33,83.88a6.33,6.33,0,0,1,1.11-5.63,2,2,0,0,1,1.85-.84l.64.13A2,2,0,0,1,84.33,79a6.33,6.33,0,0,1-1.12,5.63,2,2,0,0,1-1.85.84l-.64-.13A2,2,0,0,1,79.33,83.88Z" style="fill:#95FF86"></path><path d="M79.33,83.88a6.33,6.33,0,0,1,1.11-5.63,2,2,0,0,1,1.85-.84l.64.13A2,2,0,0,1,84.33,79a6.33,6.33,0,0,1-1.12,5.63,2,2,0,0,1-1.85.84l-.64-.13A2,2,0,0,1,79.33,83.88Z" style="fill:#fff;opacity:0.5"></path><path d="M83.69,78.89c-.59-1.73-2-2-3.25-.64a6.33,6.33,0,0,0-1.11,5.63c.59,1.73,2,2,3.25.64A6.36,6.36,0,0,0,83.69,78.89Z" style="fill:#95FF86"></path><path d="M83.69,78.89c-.59-1.73-2-2-3.25-.64a6.33,6.33,0,0,0-1.11,5.63c.59,1.73,2,2,3.25.64A6.36,6.36,0,0,0,83.69,78.89Z" style="fill:#fff;opacity:0.5"></path><path d="M83.69,78.89c-.59-1.73-2-2-3.25-.64a6.33,6.33,0,0,0-1.11,5.63c.59,1.73,2,2,3.25.64A6.36,6.36,0,0,0,83.69,78.89Z" style="opacity:0.1"></path><path d="M78.47,83.71a6.36,6.36,0,0,1,1.11-5.63,2,2,0,0,1,1.85-.84l.64.13a2,2,0,0,1,1.4,1.48,6.36,6.36,0,0,1-1.11,5.63,2,2,0,0,1-1.86.84l-.63-.13A2,2,0,0,1,78.47,83.71Z" style="fill:#95FF86"></path><path d="M78.47,83.71a6.36,6.36,0,0,1,1.11-5.63,2,2,0,0,1,1.85-.84l.64.13a2,2,0,0,1,1.4,1.48,6.36,6.36,0,0,1-1.11,5.63,2,2,0,0,1-1.86.84l-.63-.13A2,2,0,0,1,78.47,83.71Z" style="fill:#fff;opacity:0.5"></path><path d="M82.83,78.72c-.59-1.73-2-2-3.25-.64a6.36,6.36,0,0,0-1.11,5.63c.59,1.73,2,2,3.25.64A6.35,6.35,0,0,0,82.83,78.72Z" style="fill:#95FF86"></path><path d="M82.83,78.72c-.59-1.73-2-2-3.25-.64a6.36,6.36,0,0,0-1.11,5.63c.59,1.73,2,2,3.25.64A6.35,6.35,0,0,0,82.83,78.72Z" style="opacity:0.1"></path><path d="M82.45,79.16c-.49-1.42-1.69-1.66-2.68-.52a5.2,5.2,0,0,0-.91,4.63c.48,1.42,1.68,1.66,2.67.53A5.26,5.26,0,0,0,82.45,79.16Z" style="fill:#95FF86;opacity:0.7000000000000001"></path><path d="M82.45,79.16c-.49-1.42-1.69-1.66-2.68-.52a5.2,5.2,0,0,0-.91,4.63c.48,1.42,1.68,1.66,2.67.53A5.26,5.26,0,0,0,82.45,79.16Z" style="fill:#fff;opacity:0.30000000000000004"></path><path d="M81.8,79a2.84,2.84,0,0,1,.41-.38,2.59,2.59,0,0,1,.24.5,5.26,5.26,0,0,1-.92,4.64,2.4,2.4,0,0,1-.41.38,2.39,2.39,0,0,1-.23-.51A5.2,5.2,0,0,1,81.8,79Z" style="opacity:0.1"></path><path d="M77.56,83.53a6.33,6.33,0,0,1,1.12-5.63,2,2,0,0,1,1.85-.84l.64.12a2,2,0,0,1,1.4,1.49,6.36,6.36,0,0,1-1.11,5.63,2,2,0,0,1-1.86.84L79,85A2,2,0,0,1,77.56,83.53Z" style="fill:#95FF86"></path><path d="M77.56,83.53a6.33,6.33,0,0,1,1.12-5.63,2,2,0,0,1,1.85-.84l.64.12a2,2,0,0,1,1.4,1.49,6.36,6.36,0,0,1-1.11,5.63,2,2,0,0,1-1.86.84L79,85A2,2,0,0,1,77.56,83.53Z" style="opacity:0.30000000000000004"></path><path d="M81.93,78.54c-.59-1.73-2.05-2-3.25-.64a6.33,6.33,0,0,0-1.12,5.63c.6,1.74,2,2,3.26.65A6.37,6.37,0,0,0,81.93,78.54Z" style="fill:#95FF86"></path><path d="M81.93,78.54c-.59-1.73-2.05-2-3.25-.64a6.33,6.33,0,0,0-1.12,5.63c.6,1.74,2,2,3.26.65A6.37,6.37,0,0,0,81.93,78.54Z" style="opacity:0.5"></path><path d="M76.56,83.42a6.53,6.53,0,0,1,1.14-5.8,2.08,2.08,0,0,1,1.91-.86l.66.13a2.08,2.08,0,0,1,1.44,1.52,6.56,6.56,0,0,1-1.15,5.8,2.07,2.07,0,0,1-1.91.87L78,85A2.07,2.07,0,0,1,76.56,83.42Z" style="fill:#95FF86"></path><path d="M76.56,83.42a6.53,6.53,0,0,1,1.14-5.8,2.08,2.08,0,0,1,1.91-.86l.66.13a2.08,2.08,0,0,1,1.44,1.52,6.56,6.56,0,0,1-1.15,5.8,2.07,2.07,0,0,1-1.91.87L78,85A2.07,2.07,0,0,1,76.56,83.42Z" style="fill:#fff;opacity:0.5"></path><path d="M81.05,78.28c-.61-1.78-2.11-2.07-3.35-.66a6.53,6.53,0,0,0-1.14,5.8c.61,1.78,2.1,2.08,3.34.66A6.5,6.5,0,0,0,81.05,78.28Z" style="fill:#95FF86"></path><path d="M81.05,78.28c-.61-1.78-2.11-2.07-3.35-.66a6.53,6.53,0,0,0-1.14,5.8c.61,1.78,2.1,2.08,3.34.66A6.5,6.5,0,0,0,81.05,78.28Z" style="fill:#fff;opacity:0.5"></path><path d="M81.05,78.28c-.61-1.78-2.11-2.07-3.35-.66a6.53,6.53,0,0,0-1.14,5.8c.61,1.78,2.1,2.08,3.34.66A6.5,6.5,0,0,0,81.05,78.28Z" style="opacity:0.1"></path></g><path d="M80.32,78.62a1.72,1.72,0,0,0-1.26-1.3h0a4.55,4.55,0,0,1-1.74-.52A7.31,7.31,0,0,1,76,74.91c-1.15-1.83-4.14-6.11-8-6.88h0a3.88,3.88,0,0,0-1.08,0,3.69,3.69,0,0,0-1-.36h0l-1.67-.33a3.42,3.42,0,0,0-1-.06,3.65,3.65,0,0,0-1.09-.35h0L60,66.46a3.49,3.49,0,0,0-2.07.22l-.74.32a3.53,3.53,0,0,1-3.57-.49l-1.5-1.2a3.55,3.55,0,0,0-1.51-.7L24,59.33c-1.52-.3-3.24.41-4.79,2.19a16.36,16.36,0,0,0-2.88,14.54c.77,2.23,2.09,3.54,3.61,3.84l26.69,5.27a3.59,3.59,0,0,0,1.66-.07l1.84-.55a3.63,3.63,0,0,1,1.67-.07,3.54,3.54,0,0,1,1.82,1l.57.58A3.48,3.48,0,0,0,56,87l2.09.41h0a3.62,3.62,0,0,0,1.14.09,3.7,3.7,0,0,0,.95.33h0l1.67.33h0a3.55,3.55,0,0,0,1.08,0,3.91,3.91,0,0,0,1,.37h0c3.87.76,8.26-2.06,10-3.32A6.87,6.87,0,0,1,75.89,84a4.48,4.48,0,0,1,1.81.18h0a1.69,1.69,0,0,0,1.65-.72A5.47,5.47,0,0,0,80.32,78.62Z" style="fill:#95FF86"></path><path d="M79.35,83.5a1.7,1.7,0,0,1-1.65.71h0A4.48,4.48,0,0,0,75.89,84a7,7,0,0,0-2,1.24,22.59,22.59,0,0,1-4.22,2.41,10.06,10.06,0,0,1-5.8.9,3.55,3.55,0,0,1-1-.36,3.57,3.57,0,0,1-1.08,0l-1.67-.33a3.7,3.7,0,0,1-.95-.33,3.62,3.62,0,0,1-1.14-.09h0L56,87a3.47,3.47,0,0,1-1.82-1l-.57-.57a3.41,3.41,0,0,0-1.82-1,3.5,3.5,0,0,0-1.67.07l-1.84.55a3.59,3.59,0,0,1-1.66.07L19.9,79.9c-1.52-.3-2.84-1.61-3.61-3.84a16.39,16.39,0,0,1,2.88-14.54C20.72,59.74,22.44,59,24,59.33l26.69,5.28a3.55,3.55,0,0,1,1.51.7l1.5,1.2a3.56,3.56,0,0,0,1.51.71A3.63,3.63,0,0,0,57.23,67l.74-.32A3.47,3.47,0,0,1,60,66.46l2.09.41h0a3.65,3.65,0,0,1,1.09.35,3.69,3.69,0,0,1,1,.06l1.68.33a3.69,3.69,0,0,1,1,.36A3.54,3.54,0,0,1,68,68c3.87.77,6.86,5,8,6.88a7.31,7.31,0,0,0,1.33,1.89,4.74,4.74,0,0,0,1.74.52h0a1.72,1.72,0,0,1,1.26,1.3A5.49,5.49,0,0,1,79.35,83.5Z" style="fill:#fff;opacity:0.5"></path><path d="M50.09,84.55h0a5.85,5.85,0,0,0,2.8-1.92,15,15,0,0,0,2.62-13.27,5.91,5.91,0,0,0-1.82-2.82h0l0,0-1.5-1.2a3.55,3.55,0,0,0-1.51-.7L24,59.33H23.9c1.49.32,2.79,1.61,3.54,3.82a16.4,16.4,0,0,1-2.87,14.54c-1.49,1.7-3.12,2.42-4.59,2.22H19.9l26.69,5.27a3.59,3.59,0,0,0,1.66-.07ZM71.58,71.87a16.36,16.36,0,0,1-2.87,14.54c-1.46,1.68-3.07,2.39-4.52,2.22a8.5,8.5,0,0,0,3.25-.18l.35-.09c.36-.09.71-.2,1-.32l.36-.14.65-.26.32-.15.63-.3.31-.16.29-.16a23.15,23.15,0,0,0,2.54-1.59,7,7,0,0,1,2-1.24,4.48,4.48,0,0,1,1.81.18h0a1.7,1.7,0,0,0,1.65-.71,5.49,5.49,0,0,0,1-4.88,1.72,1.72,0,0,0-1.26-1.3h0a4.74,4.74,0,0,1-1.74-.52A7.31,7.31,0,0,1,76,74.91a1.42,1.42,0,0,1-.11-.18l-.26-.39c-.05-.07-.09-.15-.15-.22s-.2-.3-.31-.46L75,73.42l-.38-.5c-.11-.15-.22-.3-.34-.44L73.83,72a2.85,2.85,0,0,0-.23-.26c-.07-.09-.15-.17-.23-.26l-.24-.26a3,3,0,0,1-.25-.25c-.26-.25-.52-.5-.8-.73L71.8,70l-.28-.22a9.15,9.15,0,0,0-3.21-1.64C69.69,68.53,70.88,69.8,71.58,71.87ZM66.62,86a16.37,16.37,0,0,0,2.87-14.54c-.75-2.22-2.06-3.52-3.56-3.83l-1.7-.34c1.51.3,2.83,1.61,3.59,3.84A16.4,16.4,0,0,1,65,85.67c-1.56,1.78-3.28,2.48-4.8,2.18l1.68.33C63.34,88.48,65.06,87.78,66.62,86ZM63,85.28a16.41,16.41,0,0,0,2.88-14.54c-.77-2.24-2.09-3.54-3.61-3.84L60,66.44c1.54.29,2.88,1.6,3.65,3.85a16.39,16.39,0,0,1-2.88,14.55c-1.55,1.77-3.27,2.48-4.79,2.18l2.26.44C59.71,87.76,61.43,87.06,63,85.28Z" style="fill:#95FF86"></path><path d="M50.09,84.55h0a5.85,5.85,0,0,0,2.8-1.92,15,15,0,0,0,2.62-13.27,5.91,5.91,0,0,0-1.82-2.82h0l0,0-1.5-1.2a3.55,3.55,0,0,0-1.51-.7L24,59.33H23.9c1.49.32,2.79,1.61,3.54,3.82a16.4,16.4,0,0,1-2.87,14.54c-1.49,1.7-3.12,2.42-4.59,2.22H19.9l26.69,5.27a3.59,3.59,0,0,0,1.66-.07ZM71.58,71.87a16.36,16.36,0,0,1-2.87,14.54c-1.46,1.68-3.07,2.39-4.52,2.22a8.5,8.5,0,0,0,3.25-.18l.35-.09c.36-.09.71-.2,1-.32l.36-.14.65-.26.32-.15.63-.3.31-.16.29-.16a23.15,23.15,0,0,0,2.54-1.59,7,7,0,0,1,2-1.24,4.48,4.48,0,0,1,1.81.18h0a1.7,1.7,0,0,0,1.65-.71,5.49,5.49,0,0,0,1-4.88,1.72,1.72,0,0,0-1.26-1.3h0a4.74,4.74,0,0,1-1.74-.52A7.31,7.31,0,0,1,76,74.91a1.42,1.42,0,0,1-.11-.18l-.26-.39c-.05-.07-.09-.15-.15-.22s-.2-.3-.31-.46L75,73.42l-.38-.5c-.11-.15-.22-.3-.34-.44L73.83,72a2.85,2.85,0,0,0-.23-.26c-.07-.09-.15-.17-.23-.26l-.24-.26a3,3,0,0,1-.25-.25c-.26-.25-.52-.5-.8-.73L71.8,70l-.28-.22a9.15,9.15,0,0,0-3.21-1.64C69.69,68.53,70.88,69.8,71.58,71.87ZM66.62,86a16.37,16.37,0,0,0,2.87-14.54c-.75-2.22-2.06-3.52-3.56-3.83l-1.7-.34c1.51.3,2.83,1.61,3.59,3.84A16.4,16.4,0,0,1,65,85.67c-1.56,1.78-3.28,2.48-4.8,2.18l1.68.33C63.34,88.48,65.06,87.78,66.62,86ZM63,85.28a16.41,16.41,0,0,0,2.88-14.54c-.77-2.24-2.09-3.54-3.61-3.84L60,66.44c1.54.29,2.88,1.6,3.65,3.85a16.39,16.39,0,0,1-2.88,14.55c-1.55,1.77-3.27,2.48-4.79,2.18l2.26.44C59.71,87.76,61.43,87.06,63,85.28Z" style="fill:#fff;opacity:0.7000000000000001"></path></g><g id="freepik--Water--inject-4"><path d="M64.14,87.49a2.44,2.44,0,0,1-.7-.25l-.31-.17-.35,0a2.65,2.65,0,0,1-.74,0l-1.67-.33a2.47,2.47,0,0,1-.66-.23l-.29-.14-.32,0a3,3,0,0,1-.67,0l-.11,0-1.14-.28v0l-1-.19A2.4,2.4,0,0,1,55,85.25l-.56-.57A4.59,4.59,0,0,0,52,83.37a4.73,4.73,0,0,0-2.21.1L47.94,84a2.44,2.44,0,0,1-1.14,0L20.11,78.79c-1.17-.23-2.15-1.33-2.75-3.09A3.06,3.06,0,0,1,18.29,72c1.34-1.11,3.16-.85,4.76-.63a4.24,4.24,0,0,0,3.69-1.52,7.13,7.13,0,0,1,5.48-2.36c2,.12,3.86,1,5.78,1.52a6.12,6.12,0,0,0,2.93.3,8.51,8.51,0,0,0,2.82-1.53,9.16,9.16,0,0,1,6.59-1.51A5.11,5.11,0,0,1,53,67.39a4.54,4.54,0,0,0,2,.93A4.65,4.65,0,0,0,57.68,68l.74-.32a2.39,2.39,0,0,1,1.4-.14l1,.19v0L62,68l.1,0a2.56,2.56,0,0,1,.64.22l.29.15.32,0a2.72,2.72,0,0,1,.7,0l1.67.33a2.92,2.92,0,0,1,.7.25l.3.17.35,0a2.61,2.61,0,0,1,.74,0c3.26.64,6,4.27,7.28,6.37l.36.59a4.9,4.9,0,0,0,1.25,1.6,3,3,0,0,0,1.09.49l1.14.24c.08,0,.24.18.37.55a4.39,4.39,0,0,1-.75,3.77c-.25.3-.47.38-.54.37l-1.15-.21a3,3,0,0,0-1.2,0,5.18,5.18,0,0,0-1.76,1l-.56.41a20.78,20.78,0,0,1-4,2.29A9,9,0,0,1,64.14,87.49Z" style="fill:#95FF86"></path><path d="M64.14,87.49a2.44,2.44,0,0,1-.7-.25l-.31-.17-.35,0a2.65,2.65,0,0,1-.74,0l-1.67-.33a2.47,2.47,0,0,1-.66-.23l-.29-.14-.32,0a3,3,0,0,1-.67,0l-.11,0-1.14-.28v0l-1-.19A2.4,2.4,0,0,1,55,85.25l-.56-.57A4.59,4.59,0,0,0,52,83.37a4.73,4.73,0,0,0-2.21.1L47.94,84a2.44,2.44,0,0,1-1.14,0L20.11,78.79c-1.17-.23-2.15-1.33-2.75-3.09A3.06,3.06,0,0,1,18.29,72c1.34-1.11,3.16-.85,4.76-.63a4.24,4.24,0,0,0,3.69-1.52,7.13,7.13,0,0,1,5.48-2.36c2,.12,3.86,1,5.78,1.52a6.12,6.12,0,0,0,2.93.3,8.51,8.51,0,0,0,2.82-1.53,9.16,9.16,0,0,1,6.59-1.51A5.11,5.11,0,0,1,53,67.39a4.54,4.54,0,0,0,2,.93A4.65,4.65,0,0,0,57.68,68l.74-.32a2.39,2.39,0,0,1,1.4-.14l1,.19v0L62,68l.1,0a2.56,2.56,0,0,1,.64.22l.29.15.32,0a2.72,2.72,0,0,1,.7,0l1.67.33a2.92,2.92,0,0,1,.7.25l.3.17.35,0a2.61,2.61,0,0,1,.74,0c3.26.64,6,4.27,7.28,6.37l.36.59a4.9,4.9,0,0,0,1.25,1.6,3,3,0,0,0,1.09.49l1.14.24c.08,0,.24.18.37.55a4.39,4.39,0,0,1-.75,3.77c-.25.3-.47.38-.54.37l-1.15-.21a3,3,0,0,0-1.2,0,5.18,5.18,0,0,0-1.76,1l-.56.41a20.78,20.78,0,0,1-4,2.29A9,9,0,0,1,64.14,87.49Z" style="fill:#fff;opacity:0.85"></path></g><g id="freepik--shadows--inject-4"><path d="M71.58,71.87a6.9,6.9,0,0,0-.37-.91,8.56,8.56,0,0,0-2.81-1.64,7.8,7.8,0,0,1,1.09,2.14A16.37,16.37,0,0,1,66.62,86a7.77,7.77,0,0,1-1.82,1.56A8.39,8.39,0,0,0,68,87.12c.23-.22.46-.45.69-.71A16.36,16.36,0,0,0,71.58,71.87Zm-8-1.58a8,8,0,0,0-1.07-2.11,3.09,3.09,0,0,0-.59-.18l-1.17-.18v0l-1-.19a2.4,2.4,0,0,0-1.4.15l-.74.31a4.58,4.58,0,0,1-2.58.32,7.71,7.71,0,0,1,.41,1,15,15,0,0,1-2.62,13.27,7.85,7.85,0,0,1-.77.76,4.6,4.6,0,0,1,2.28,1.28l.56.57a2.37,2.37,0,0,0,1.23.67l1,.19v0l1.15.27a2.11,2.11,0,0,0,.61.06,7.79,7.79,0,0,0,1.79-1.54A16.39,16.39,0,0,0,63.6,70.29Zm4.22.84a7.86,7.86,0,0,0-1-2h-.16L66.36,69a2.3,2.3,0,0,0-.69-.25l-1-.19a7.51,7.51,0,0,1,1.14,2.19A16.37,16.37,0,0,1,63,85.28a7.36,7.36,0,0,1-1.88,1.6l.94.18a2.34,2.34,0,0,0,.75,0l.34,0,.15.07A8.12,8.12,0,0,0,65,85.67,16.37,16.37,0,0,0,67.82,71.13Z" style="fill:#95FF86"></path><path d="M71.58,71.87a6.9,6.9,0,0,0-.37-.91,8.56,8.56,0,0,0-2.81-1.64,7.8,7.8,0,0,1,1.09,2.14A16.37,16.37,0,0,1,66.62,86a7.77,7.77,0,0,1-1.82,1.56A8.39,8.39,0,0,0,68,87.12c.23-.22.46-.45.69-.71A16.36,16.36,0,0,0,71.58,71.87Zm-8-1.58a8,8,0,0,0-1.07-2.11,3.09,3.09,0,0,0-.59-.18l-1.17-.18v0l-1-.19a2.4,2.4,0,0,0-1.4.15l-.74.31a4.58,4.58,0,0,1-2.58.32,7.71,7.71,0,0,1,.41,1,15,15,0,0,1-2.62,13.27,7.85,7.85,0,0,1-.77.76,4.6,4.6,0,0,1,2.28,1.28l.56.57a2.37,2.37,0,0,0,1.23.67l1,.19v0l1.15.27a2.11,2.11,0,0,0,.61.06,7.79,7.79,0,0,0,1.79-1.54A16.39,16.39,0,0,0,63.6,70.29Zm4.22.84a7.86,7.86,0,0,0-1-2h-.16L66.36,69a2.3,2.3,0,0,0-.69-.25l-1-.19a7.51,7.51,0,0,1,1.14,2.19A16.37,16.37,0,0,1,63,85.28a7.36,7.36,0,0,1-1.88,1.6l.94.18a2.34,2.34,0,0,0,.75,0l.34,0,.15.07A8.12,8.12,0,0,0,65,85.67,16.37,16.37,0,0,0,67.82,71.13Z" style="fill:#fff;opacity:0.7000000000000001"></path></g><g style="opacity:0.05"><path d="M79.35,83.5a1.7,1.7,0,0,1-1.65.71h0A4.48,4.48,0,0,0,75.89,84a7,7,0,0,0-2,1.24,22.59,22.59,0,0,1-4.22,2.41,10.06,10.06,0,0,1-5.8.9,2.81,2.81,0,0,1-.55-.15,4.84,4.84,0,0,1-.47-.21,3.25,3.25,0,0,1-.54,0,3.31,3.31,0,0,1-.54-.06l-1.67-.33a3.68,3.68,0,0,1-.69-.22l-.26-.11a3.62,3.62,0,0,1-1.14-.09h0L56,87a3.5,3.5,0,0,1-1.42-.63,2.71,2.71,0,0,1-.4-.35l-.57-.57a3.56,3.56,0,0,0-.85-.65,3.29,3.29,0,0,0-1-.34,3.5,3.5,0,0,0-1.67.07h0l-1.84.55-.39.08h0a2.58,2.58,0,0,1-.29,0h-.32l-.32,0h0l-.29,0L19.9,79.9l-.06,0-.28-.07h0a3.88,3.88,0,0,1-1.4-.8l-.05,0-.38-.39-.06-.06c-.11-.14-.23-.28-.34-.44L17.24,78c-.11-.16-.21-.32-.31-.5l-.06-.1c-.1-.18-.19-.37-.28-.56,0,0,0-.08,0-.11-.08-.2-.16-.39-.23-.6l0-.06c-.08-.26-.16-.53-.23-.8a.7.7,0,0,1,0-.14,11.5,11.5,0,0,1-.3-1.71.62.62,0,0,0,0-.13c0-.28,0-.57-.06-.86v0c0-.3,0-.61,0-.92v-.14c0-.28,0-.55.05-.83v-.1c0-.3.06-.61.1-.91,0-.06,0-.11,0-.17,0-.25.08-.51.13-.76l0-.17c.06-.29.13-.58.2-.87,0-.06,0-.12.05-.18.06-.24.13-.48.2-.71l.06-.2c.09-.27.18-.52.27-.78l.12-.28.21-.53.12-.26c.11-.24.23-.48.35-.7a1.28,1.28,0,0,1,.11-.2,6.44,6.44,0,0,1,.36-.63L18.1,63c.15-.24.31-.47.47-.69l.08-.11c.17-.22.34-.44.52-.64,1.53-1.76,3.23-2.47,4.73-2.19s2.79,1.61,3.54,3.82a16.54,16.54,0,0,1-.86,11.32c-.08.17-.16.34-.25.51s-.13.26-.19.38-.16.32-.25.47L47.67,80.1A3.5,3.5,0,0,0,49.34,80l1.84-.54a3.46,3.46,0,0,1,1.66-.07,3.56,3.56,0,0,1,1.64.8l.19.18.56.58a3.51,3.51,0,0,0,1.83,1l2.08.41h0a3.64,3.64,0,0,0,1.14.09,3.77,3.77,0,0,0,1,.33l1.67.33a3.54,3.54,0,0,0,1.08,0,3.72,3.72,0,0,0,1,.37h0c3.88.76,8.09-1.16,9.85-2.41a7.16,7.16,0,0,1,1.94-1.24,26.39,26.39,0,0,1,3.72.57A5.35,5.35,0,0,1,79.35,83.5Z"></path><path id="freepik--shadow--inject-4" d="M32.34,64.12a16.37,16.37,0,0,1-2.87,14.54c-1.56,1.78-1.69,2.8-3.21,2.5l13.62,2.69c1.52.3,3.24-.41,4.8-2.19a16.39,16.39,0,0,0,2.87-14.54c-.76-2.23-2.09-3.54-3.61-3.84l-15.2-3C30.26,60.58,31.58,61.88,32.34,64.12Z"></path></g></g><g id="freepik--Label--inject-4"><path d="M33.66,64.38a16.38,16.38,0,0,1-2.88,14.54C29.23,80.7,27.51,81.4,26,81.1l15.21,3c1.52.3,3.23-.41,4.79-2.19a16.36,16.36,0,0,0,2.87-14.54c-.76-2.23-2.08-3.54-3.6-3.84l-15.21-3C31.57,60.84,32.89,62.14,33.66,64.38Z" style="fill:#95FF86"></path><path d="M36.54,83.19a7.11,7.11,0,0,1,1.56-2.66c.65-.7,1.39-1.4,2.18-2.14a26.87,26.87,0,0,0,3.73-4,10.2,10.2,0,0,0,1.73-6.79,8.23,8.23,0,0,0-1.46-4.25l-.55-.11a8.07,8.07,0,0,1,1.61,4.38,9.76,9.76,0,0,1-1.66,6.54A27.07,27.07,0,0,1,40,78.1c-.79.75-1.54,1.45-2.2,2.16a7.48,7.48,0,0,0-1.65,2.85Z" style="fill:#fafafa"></path><path d="M34.41,64.53a16.37,16.37,0,0,1-2.87,14.54c-1.56,1.78-3.28,2.48-4.8,2.18l7.18,1.42a7,7,0,0,1,1.61-2.75C37.31,78,39.88,76,41.42,73.8a9.94,9.94,0,0,0,1.7-6.67,8.14,8.14,0,0,0-1.53-4.31L30.81,60.69C32.33,61,33.65,62.29,34.41,64.53Z" style="fill:#fafafa"></path><path d="M31.68,77.73a10.91,10.91,0,0,1-.9,1.19C29.23,80.7,27.51,81.4,26,81.1l15.21,3c1.52.3,3.23-.41,4.79-2.19a10.78,10.78,0,0,0,.9-1.18Z" style="opacity:0.1"></path></g></g><path id="freepik--Thumb--inject-4" d="M62.68,83.76A8.42,8.42,0,0,0,58,85.05a5.11,5.11,0,0,1-3.24,1.13,2.47,2.47,0,0,1-1.33-.66l-1,10.83C54.07,94.19,57.36,93,58.87,91s5-4.56,5.54-5.21C65.63,84.36,63.65,83.78,62.68,83.76Z" style="fill:#9e6767"></path></g></g></g><g id="freepik--speech-bubble--inject-4"><g id="freepik--Bubble--inject-4"><path d="M250.59,101.2l-7.78-4.73a100.72,100.72,0,0,1-15.57-11.85c-7.9-7.4-14-15.35-14-26.44A18.66,18.66,0,0,1,218,45.78h0l.06-.07a17,17,0,0,1,12.76-6c7.56-.4,15.06,2.5,19.73,11,4.67-8.46,12.17-11.36,19.74-11a17,17,0,0,1,12.75,6l.06.07h0a18.67,18.67,0,0,1,4.77,12.4c0,11.09-6.07,19-14,26.44a100.8,100.8,0,0,1-15.58,11.85Z" style="fill:#95FF86"></path><path d="M216.62,71.59h17.43l5.7-17.45a1.22,1.22,0,0,1,1.15-.84h0a1.22,1.22,0,0,1,1.15.82l9,25.6,7.89-19.21a1.22,1.22,0,0,1,1.1-.76,1.31,1.31,0,0,1,1.14.72l4.69,10.4h19.09c-.41.83-.86,1.64-1.35,2.44H265.06a1.21,1.21,0,0,1-1.11-.72l-3.86-8.54-8,19.56a1.22,1.22,0,0,1-1.12.76h0a1.23,1.23,0,0,1-1.12-.82L241,58.32l-4.86,14.86a1.2,1.2,0,0,1-1.15.84H218C217.53,73.23,217.06,72.42,216.62,71.59Z" style="fill:#fff"></path><path d="M240.21,93.42c-3.67,1.44-4.59,8.35-1.51,12.25-6.5-2.78-9.52-11.56-6.5-18.2Z" style="fill:#95FF86"></path></g></g></svg>